<?xml version="1.0" encoding="utf-8"?>
<!-- Generator: Adobe Illustrator 27.5.0, SVG Export Plug-In . SVG Version: 6.00 Build 0)  -->
<svg version="1.1" xmlns="http://www.w3.org/2000/svg" xmlns:xlink="http://www.w3.org/1999/xlink" x="0px" y="0px"
	 viewBox="0 0 500 500" style="enable-background:new 0 0 500 500;" xml:space="preserve">
<g id="Background_Complete">
	<g>
		<g>
			<g>
				<g>
					<path style="fill:#E0E0E0;" d="M128.992,192.486c1.45-0.876,2.993-1.54,4.585-1.993l0.945-4.539l7.669-0.135l1.104,4.502
						c1.607,0.396,3.173,1.006,4.653,1.83l3.876-2.54l5.518,5.327l-2.402,3.962c0.876,1.45,1.541,2.994,1.993,4.587l4.538,0.944
						l0.135,7.668l-4.502,1.104c-0.396,1.607-1.006,3.173-1.83,4.652l2.54,3.876l-5.327,5.518l-3.962-2.402
						c-1.45,0.876-2.994,1.54-4.586,1.993l-0.945,4.539l-7.668,0.135l-1.104-4.503c-1.607-0.396-3.173-1.006-4.653-1.83l-3.876,2.54
						l-5.518-5.327l2.402-3.962c-0.876-1.45-1.541-2.994-1.993-4.586l-4.538-0.945l-0.135-7.668l4.503-1.104
						c0.396-1.607,1.006-3.173,1.83-4.652l-2.54-3.876l5.327-5.518L128.992,192.486L128.992,192.486z M133.08,202.702
						c-3.156,3.269-3.065,8.478,0.205,11.634c3.269,3.156,8.478,3.064,11.634-0.205c3.156-3.269,3.065-8.478-0.204-11.634
						C141.444,199.341,136.236,199.433,133.08,202.702z"/>
				</g>
			</g>
		</g>
	</g>
	<g>
		<g>
			<g>
				<g>
					<g>
						<rect x="46.318" y="267.053" style="fill:#F5F5F5;" width="15.323" height="47.858"/>
					</g>
				</g>
			</g>
			<g>
				<g>
					<g>
						<rect x="69.196" y="277.985" style="fill:#F5F5F5;" width="15.323" height="36.926"/>
					</g>
				</g>
			</g>
			<g>
				<g>
					<g>
						<rect x="90.378" y="292.982" style="fill:#F5F5F5;" width="15.323" height="21.929"/>
					</g>
				</g>
			</g>
		</g>
	</g>
	<g>
		<g>
			<g>
				<g>
					<g>
						<g>
							<g>
								<g>
									<g>
										<g>
											<g>
												<g>
													<path style="fill:#F5F5F5;" d="M437.279,402.171c0-14.575-11.816-26.391-26.391-26.391
														c-14.575,0-26.391,11.816-26.391,26.391c0,10.553,6.196,19.655,15.146,23.877c0,3.127,0,6.658,0,6.658l23.131,0
														c0,0,0.14-3.737,0.191-7.072C431.464,421.251,437.279,412.393,437.279,402.171z"/>
												</g>
											</g>
										</g>
									</g>
								</g>
							</g>
						</g>
						<g>
							<g>
								<g>
									<g>
										<g>
											<g>
												<g>
													<path style="fill:#E0E0E0;" d="M420.994,436.989h-19.86c-0.823,0-1.49-0.667-1.49-1.49l0,0
														c0-0.823,0.667-1.49,1.491-1.491h19.86c0.823,0,1.491,0.667,1.491,1.49l0,0
														C422.484,436.322,421.817,436.989,420.994,436.989z"/>
												</g>
											</g>
										</g>
									</g>
								</g>
							</g>
						</g>
						<g>
							<g>
								<g>
									<g>
										<g>
											<g>
												<g>
													<path style="fill:#E0E0E0;" d="M420.994,438.29h-19.86c-0.823,0-1.491,0.667-1.491,1.49
														c0,0.823,0.667,1.491,1.491,1.49h2.18l2.892,5.505c0.331,0.629,0.983,1.024,1.695,1.024h7.097
														c0.718,0,1.376-0.402,1.704-1.042l2.81-5.487l1.482,0c0.823,0,1.491-0.667,1.491-1.49
														C422.484,438.958,421.817,438.29,420.994,438.29z"/>
												</g>
											</g>
										</g>
									</g>
								</g>
							</g>
						</g>
					</g>
					<g>
						<g>
							<g>
								<g>
									<g>
										<g>
											<g>
												<g>
													<path style="fill:#FAFAFA;" d="M416.332,447.229c-0.024,0.049-0.523-0.179-1.364-0.42
														c-0.84-0.243-2.037-0.46-3.369-0.425c-1.332,0.041-2.515,0.327-3.339,0.619c-0.826,0.289-1.311,0.546-1.338,0.498
														c-0.018-0.029,0.43-0.36,1.256-0.712c0.821-0.354,2.037-0.686,3.412-0.729c1.375-0.037,2.607,0.225,3.448,0.53
														C415.881,446.894,416.348,447.198,416.332,447.229z"/>
												</g>
											</g>
										</g>
									</g>
								</g>
							</g>
						</g>
					</g>
					<g>
						<g>
							<g>
								<g>
									<g>
										<g>
											<g>
												<g>
													<path style="fill:#FAFAFA;" d="M419.554,441.339c0,0.09-3.59,0.162-8.018,0.162c-4.429,0-8.019-0.073-8.019-0.162
														c0-0.09,3.59-0.162,8.019-0.162C415.964,441.177,419.554,441.249,419.554,441.339z"/>
												</g>
											</g>
										</g>
									</g>
								</g>
							</g>
						</g>
					</g>
					<g>
						<g>
							<g>
								<g>
									<g>
										<g>
											<g>
												<g>
													<path style="fill:#FAFAFA;" d="M418.311,443.694c0.002,0.044-0.745,0.123-1.956,0.199
														c-1.211,0.076-2.885,0.146-4.736,0.172c-1.851,0.026-3.528,0.004-4.74-0.038c-1.212-0.042-1.961-0.1-1.96-0.144
														c0.001-0.045,0.751-0.069,1.963-0.085c1.309-0.016,2.935-0.035,4.733-0.057c1.798-0.029,3.423-0.055,4.732-0.077
														C417.559,443.647,418.309,443.649,418.311,443.694z"/>
												</g>
											</g>
										</g>
									</g>
								</g>
							</g>
						</g>
					</g>
				</g>
				<g>
					<g>
						<g>
							<g>
								<g>
									<path style="fill:#FFFFFF;" d="M433.232,394.228c0.035-0.012,0.244,0.455,0.525,1.337c0.283,0.88,0.601,2.189,0.801,3.837
										c0.418,3.27,0.153,8.034-1.966,12.692c-2.123,4.658-5.543,7.986-8.285,9.816c-1.375,0.931-2.57,1.549-3.42,1.914
										c-0.85,0.367-1.339,0.516-1.353,0.482c-0.055-0.114,1.875-0.836,4.516-2.759c2.628-1.892,5.903-5.183,7.969-9.714
										c2.061-4.531,2.395-9.161,2.097-12.386C433.832,396.192,433.11,394.262,433.232,394.228z"/>
								</g>
							</g>
						</g>
					</g>
				</g>
				<g>
					<g>
						<g>
							<g>
								<g>
									<path style="fill:#FFFFFF;" d="M416.067,381.392c-0.528-1.814-2.616-3.042-5.168-3.048c-0.012,0-0.025,0.001-0.037,0.002
										c-4.23,0.408-8.349,1.605-11.994,3.739c-5.016,2.936-8.592,7.899-9.877,13.567c-0.238,1.048-0.366,2.144-0.11,3.185
										c0.267,1.088,1.025,2.11,2.099,2.433c1.03,0.31,2.172-0.072,3.008-0.748c0.836-0.676,1.417-1.612,1.939-2.552
										c1.194-2.149,2.174-4.426,3.598-6.431c1.633-2.3,3.5-3.786,5.792-4.288c1.584-0.347,3.021-0.382,4.605-0.725
										c1.975-0.428,3.24-0.383,4.614-1.244C415.537,384.654,416.411,382.575,416.067,381.392z"/>
								</g>
							</g>
						</g>
					</g>
				</g>
				<g>
					<g>
						<g>
							<g>
								<path style="fill:#FFFFFF;" d="M394.266,407.164c0,1.679-1.361,3.04-3.04,3.04c-1.679,0-3.04-1.361-3.04-3.04
									c0-1.679,1.361-3.04,3.04-3.04C392.904,404.124,394.266,405.485,394.266,407.164z"/>
							</g>
						</g>
					</g>
				</g>
				<g>
					<g>
						<g>
							<g>
								<g>
									<path style="fill:none;stroke:#4E585D;stroke-width:0.05;stroke-miterlimit:10;" d="M431.466,414.424"/>
								</g>
							</g>
						</g>
					</g>
				</g>
			</g>
		</g>
		<g>
			<g>
				<g>
					<g>
						<g>
							<path style="fill:#E0E0E0;" d="M419.07,432.794c0,0-0.071-0.356-0.163-1.038c-0.097-0.756-0.223-1.749-0.382-2.988
								c-0.322-2.68-0.771-6.417-1.321-10.999c-0.248-2.335-0.63-4.838-0.833-7.626c0.001-0.702,0.192-1.496,0.75-2.052
								c0.513-0.587,1.54-0.772,2.214-0.25c0.663,0.487,1.007,1.255,1.132,2.035c0.088,0.793-0.014,1.595-0.298,2.349
								c-0.567,1.505-1.786,2.77-3.314,3.455c-1.522,0.715-3.423,0.672-4.964-0.157c-1.552-0.8-2.766-2.247-3.353-3.94
								c-0.287-0.852-0.427-1.759-0.317-2.688c0.069-0.459,0.208-0.924,0.497-1.33c0.281-0.408,0.773-0.709,1.295-0.72
								c0.531-0.028,1.017,0.249,1.35,0.582c0.347,0.336,0.599,0.738,0.787,1.16c0.384,0.86,0.46,1.768,0.492,2.654
								c0.026,1.769-0.537,3.61-1.837,4.827c-1.246,1.212-3.163,1.787-4.788,1.162c-1.609-0.606-2.73-1.923-3.516-3.269
								c-0.394-0.684-0.701-1.406-0.919-2.144c-0.198-0.722-0.415-1.502-0.243-2.288c0.082-0.379,0.222-0.771,0.543-1.065
								c0.322-0.311,0.852-0.344,1.22-0.13c0.734,0.482,0.853,1.289,1.049,1.92c0.772,2.654,1.198,5.204,1.402,7.541
								c0.419,4.686-0.072,8.496-0.566,11.061c-0.516,2.572-1.021,3.935-1.021,3.935s0.066-0.357,0.233-1.025
								c0.164-0.668,0.391-1.657,0.617-2.942c0.44-2.564,0.879-6.355,0.422-11c-0.223-2.318-0.663-4.842-1.443-7.466
								c-0.183-0.645-0.366-1.376-0.878-1.689c-0.25-0.134-0.571-0.118-0.776,0.085c-0.218,0.196-0.35,0.523-0.415,0.853
								c-0.15,0.667,0.044,1.38,0.243,2.095c0.212,0.706,0.51,1.398,0.889,2.052c0.757,1.293,1.842,2.531,3.304,3.072
								c1.456,0.558,3.186,0.044,4.341-1.077c1.186-1.111,1.72-2.824,1.693-4.504c-0.029-0.839-0.111-1.721-0.455-2.476
								c-0.325-0.74-0.95-1.5-1.713-1.479c-0.797,0.01-1.268,0.86-1.366,1.666c-0.098,0.823,0.028,1.691,0.296,2.48
								c0.546,1.584,1.69,2.95,3.134,3.696c1.437,0.771,3.165,0.815,4.587,0.156c1.671,0.353,2.647-1.53,3.101-3.21
								c0.266-0.691,0.359-1.442,0.285-2.145c-0.102-0.693-0.427-1.385-0.958-1.771c-0.53-0.401-1.275-0.28-1.716,0.197
								c-0.469,0.461-0.644,1.13-0.651,1.789c0.183,2.693,0.549,5.268,0.776,7.584c0.491,4.589,0.892,8.331,1.179,11.015
								c0.124,1.243,0.223,2.24,0.298,2.998C419.06,432.431,419.07,432.794,419.07,432.794z"/>
						</g>
					</g>
				</g>
			</g>
		</g>
	</g>
	<g>
		<g>
			<g>
				<g>
					<g>
						<g>
							<path style="fill:#F5F5F5;" d="M423,66.942l11.668,1.136c0,0,0.954-9.797,11.152-8.981c5.296,0.424,7.701,4.154,8.556,6.916
								c0.993,3.207,0.26,6.681-1.751,9.369c-2.297,3.07-6.954,5.941-14.682,3.79l-2.529,25.98l11.537,1.123l1.5-15.41
								c0,0,16.589-2.608,18.324-20.44c1.661-17.062-13.854-22.572-21.82-23.348C439.947,46.59,424.784,46.336,423,66.942z"/>
						</g>
					</g>
				</g>
			</g>
			<g>
				<g>
					<g>
						<g>
							
								<rect x="434.682" y="110.725" transform="matrix(0.0969 -0.9953 0.9953 0.0969 281.4696 543.4146)" style="fill:#F5F5F5;" width="10.987" height="11.764"/>
						</g>
					</g>
				</g>
			</g>
		</g>
		<g>
			<g>
				<g>
					<g>
						<g>
							<path style="fill:#EBEBEB;" d="M418.347,66.489l11.668,1.136c0,0,0.954-9.797,11.152-8.981
								c5.296,0.424,7.701,4.154,8.556,6.916c0.993,3.207,0.26,6.68-1.751,9.369c-2.297,3.07-6.922,5.614-14.651,3.463L430.76,104.7
								l11.537,1.123l1.5-15.41c0,0,16.589-2.608,18.324-20.44c1.661-17.062-13.254-22.514-19.803-23.152
								C437.31,46.334,420.13,45.883,418.347,66.489z"/>
						</g>
					</g>
				</g>
			</g>
			<g>
				<g>
					<g>
						<g>
							
								<rect x="430.028" y="110.272" transform="matrix(0.0969 -0.9953 0.9953 0.0969 277.714 538.3721)" style="fill:#EBEBEB;" width="10.987" height="11.764"/>
						</g>
					</g>
				</g>
			</g>
		</g>
	</g>
	<g>
		<g>
			<g>
				<g>
					<path style="fill:#E0E0E0;" d="M248.06,38.847c1.488-0.81,3.06-1.403,4.671-1.783l1.149-4.491l7.667,0.213l0.898,4.548
						c1.587,0.468,3.124,1.148,4.565,2.039l3.987-2.362l5.271,5.572l-2.579,3.849c0.81,1.488,1.404,3.061,1.783,4.672l4.491,1.149
						l-0.213,7.667l-4.548,0.899c-0.468,1.587-1.148,3.124-2.039,4.565l2.362,3.987l-5.571,5.271l-3.849-2.579
						c-1.488,0.81-3.061,1.403-4.672,1.783l-1.149,4.491l-7.666-0.213l-0.899-4.548c-1.587-0.469-3.124-1.149-4.565-2.039
						l-3.987,2.362l-5.271-5.572l2.579-3.849c-0.81-1.488-1.404-3.06-1.783-4.672l-4.491-1.149l0.213-7.667l4.548-0.899
						c0.468-1.587,1.149-3.124,2.039-4.565l-2.362-3.987l5.571-5.271L248.06,38.847L248.06,38.847z M251.681,49.237
						c-3.301,3.123-3.446,8.33-0.323,11.631c3.123,3.301,8.33,3.445,11.631,0.323c3.301-3.123,3.446-8.33,0.323-11.631
						C260.189,46.259,254.982,46.115,251.681,49.237z"/>
				</g>
			</g>
		</g>
	</g>
	<g>
		<g>
			<g>
				<g>
					<path style="fill:#F5F5F5;" d="M202.806,33.171c1.033-0.624,2.132-1.097,3.266-1.42l0.673-3.233l5.462-0.096l0.786,3.207
						c1.145,0.282,2.26,0.716,3.314,1.304l2.76-1.81l3.93,3.795l-1.711,2.822c0.624,1.033,1.097,2.133,1.419,3.267l3.233,0.673
						l0.096,5.462l-3.207,0.786c-0.282,1.144-0.716,2.26-1.304,3.314l1.809,2.761l-3.794,3.93l-2.822-1.711
						c-1.033,0.624-2.133,1.097-3.267,1.419l-0.673,3.233l-5.462,0.096l-0.786-3.207c-1.145-0.282-2.26-0.716-3.314-1.304
						l-2.761,1.81l-3.93-3.795l1.711-2.822c-0.624-1.033-1.098-2.132-1.42-3.267l-3.233-0.673l-0.096-5.462l3.207-0.786
						c0.282-1.144,0.717-2.26,1.304-3.314l-1.809-2.761l3.794-3.93L202.806,33.171L202.806,33.171z M205.717,40.447
						c-2.248,2.329-2.183,6.039,0.146,8.287c2.328,2.248,6.039,2.183,8.286-0.146c2.248-2.328,2.183-6.039-0.146-8.287
						C211.675,38.054,207.965,38.119,205.717,40.447z"/>
				</g>
			</g>
		</g>
	</g>
	<g>
		<g>
			<g>
				<g>
					<path style="fill:#F5F5F5;" d="M293.948,191.324c1.033-0.624,2.132-1.097,3.266-1.42l0.673-3.233l5.462-0.096l0.786,3.207
						c1.145,0.282,2.26,0.716,3.314,1.304l2.761-1.81l3.93,3.795l-1.711,2.822c0.624,1.033,1.098,2.133,1.419,3.267l3.233,0.673
						l0.096,5.462l-3.207,0.786c-0.282,1.144-0.716,2.26-1.304,3.314l1.809,2.761l-3.794,3.93l-2.822-1.711
						c-1.033,0.624-2.133,1.097-3.267,1.419l-0.673,3.233l-5.462,0.096l-0.786-3.207c-1.145-0.282-2.26-0.717-3.314-1.304
						l-2.761,1.81l-3.93-3.795l1.711-2.822c-0.624-1.033-1.098-2.132-1.419-3.267l-3.233-0.673l-0.096-5.462l3.207-0.786
						c0.282-1.144,0.717-2.26,1.304-3.314l-1.809-2.761l3.794-3.93L293.948,191.324L293.948,191.324z M296.86,198.6
						c-2.248,2.329-2.183,6.038,0.146,8.287c2.328,2.248,6.038,2.183,8.286-0.146c2.248-2.328,2.183-6.039-0.146-8.287
						C302.818,196.207,299.108,196.272,296.86,198.6z"/>
				</g>
			</g>
		</g>
	</g>
</g>
<g id="Background_Simple" style="display:none;">
	<g style="display:inline;">
		<g>
			<path style="fill:#F5F5F5;" d="M51.235,127.714l0.822,1.355c6.933,11.425,19.469,18.313,32.685,17.477
				c1.699-0.107,3.391-0.337,5.06-0.695c12.016-2.572,22.472-11.659,26.806-23.297c2.549-6.844,3.261-14.725,8.098-20.157
				c6.295-7.07,16.982-7.292,26.378-6.999c9.396,0.293,20.09,0.043,26.355-7.055c3.923-4.446,5.17-10.767,4.854-16.721
				c-0.838-15.762-11.821-29.856-25.789-36.861c-13.968-7.005-30.414-7.633-45.701-4.551C89.387,34.526,69.021,46.381,56.78,64.692
				S41.44,107.95,51.235,127.714z"/>
		</g>
	</g>
	<g style="display:inline;">
		<g>
			<path style="fill:#F5F5F5;" d="M445.512,375.452l-0.656-1.081c-5.531-9.115-15.532-14.609-26.075-13.943
				c-1.355,0.086-2.705,0.269-4.036,0.554c-9.586,2.052-17.928,9.301-21.385,18.586c-2.033,5.46-2.601,11.747-6.46,16.081
				c-5.022,5.641-13.548,5.818-21.044,5.584c-7.496-0.234-16.028-0.034-21.025,5.628c-3.13,3.547-4.125,8.59-3.872,13.34
				c0.668,12.574,9.43,23.818,20.574,29.407c11.143,5.589,24.263,6.089,36.459,3.631c17.085-3.444,33.332-12.902,43.098-27.51
				C450.854,411.12,453.326,391.218,445.512,375.452z"/>
		</g>
	</g>
	<g style="display:inline;">
		<g>
			<circle style="fill:#F5F5F5;" cx="254.863" cy="56.736" r="23.253"/>
		</g>
	</g>
	<g style="display:inline;">
		<g>
			<circle style="fill:#F5F5F5;" cx="87.781" cy="313.135" r="23.253"/>
		</g>
	</g>
</g>
<g id="Desk">
	<g>
		<g>
			<g>
				<path style="fill:#263238;" d="M461.816,468.663c0,0.144-94.841,0.26-211.806,0.26c-117.006,0-211.826-0.117-211.826-0.26
					c0-0.144,94.821-0.26,211.826-0.26C366.975,468.402,461.816,468.519,461.816,468.663z"/>
			</g>
		</g>
	</g>
</g>
<g id="Plant">
	<g>
		<g>
			<g>
				<g>
					<g>
						<g>
							<polygon style="fill:#FF725E;" points="45.946,429.866 53.594,468.511 93.305,468.484 101.702,430.513 							"/>
						</g>
					</g>
				</g>
			</g>
			<g>
				<g>
					<g>
						<g>
							<path style="fill:#FF725E;" d="M41.389,423.986v5.392c0,1.82,1.481,3.295,3.309,3.295h57.497
								c1.827,0,3.309-1.475,3.309-3.295v-5.392c0-1.644-1.338-2.977-2.989-2.977H44.379
								C42.728,421.009,41.389,422.342,41.389,423.986z"/>
						</g>
					</g>
				</g>
			</g>
			<g style="opacity:0.4;">
				<g>
					<g>
						<g>
							<polygon points="46.375,432.674 46.852,435.338 99.906,439.104 101.25,432.674 							"/>
						</g>
					</g>
				</g>
			</g>
		</g>
		<g>
			<g>
				<g>
					<path style="fill:#FFFFFF;" d="M96.395,451.086c0,0.144-10.275,0.26-22.947,0.26c-12.677,0-22.949-0.116-22.949-0.26
						c0-0.144,10.273-0.26,22.949-0.26C86.12,450.825,96.395,450.942,96.395,451.086z"/>
				</g>
			</g>
		</g>
		<g>
			<g>
				<g>
					<path style="fill:#FFFFFF;" d="M96.702,454.295c0,0.144-10.275,0.26-22.947,0.26c-12.677,0-22.949-0.117-22.949-0.26
						s10.273-0.26,22.949-0.26C86.427,454.035,96.702,454.152,96.702,454.295z"/>
				</g>
			</g>
		</g>
		<g>
			<g>
				<g>
					<g>
						<g>
							<path style="fill:#455A64;" d="M50.048,421.051c0,0-22.354-25.663-19.87-26.59c2.484-0.928,22.354,13.295,22.354,13.295
								s-17.076-38.031-13.66-40.814c3.415-2.783,21.422,33.702,21.422,33.702s-2.794-53.181,0-53.799
								c2.794-0.618,13.04,53.181,13.04,53.181s15.213-49.162,19.559-49.162c4.347,0-4.657,47.306-4.657,47.306
								s18.007-30.301,20.801-26.281c2.794,4.019-12.729,36.794-12.729,36.794s22.664-18.861,23.595-16.387
								c0.931,2.474-24.527,28.755-24.527,28.755H50.048z"/>
						</g>
					</g>
				</g>
			</g>
			<g>
				<g>
					<g>
						<g>
							<g>
								<path style="fill:#263238;" d="M46.929,382.402c0.155-0.069,4.12,8.397,8.856,18.906
									c4.737,10.513,8.451,19.089,8.296,19.158c-0.154,0.069-4.119-8.395-8.856-18.908
									C50.489,391.049,46.775,382.471,46.929,382.402z"/>
							</g>
						</g>
					</g>
				</g>
			</g>
			<g>
				<g>
					<g>
						<g>
							<g>
								<path style="fill:#263238;" d="M64.987,387.132c0.169-0.012,0.828,7.45,1.472,16.664c0.644,9.217,1.029,16.696,0.86,16.708
									c-0.169,0.012-0.828-7.448-1.472-16.665C65.203,394.624,64.819,387.144,64.987,387.132z"/>
							</g>
						</g>
					</g>
				</g>
			</g>
			<g>
				<g>
					<g>
						<g>
							<g>
								<path style="fill:#263238;" d="M89.897,363.315c0.02,0.007-0.026,0.214-0.131,0.602c-0.132,0.454-0.294,1.012-0.491,1.691
									c-0.468,1.55-1.1,3.645-1.87,6.195c-1.576,5.231-3.695,12.474-5.854,20.524c-2.156,8.053-3.942,15.385-5.192,20.703
									c-0.608,2.593-1.108,4.723-1.478,6.299c-0.169,0.686-0.308,1.251-0.42,1.709c-0.103,0.389-0.167,0.592-0.187,0.588
									c-0.021-0.004,0.003-0.215,0.066-0.613c0.082-0.465,0.184-1.037,0.308-1.733c0.277-1.503,0.716-3.672,1.289-6.344
									c1.143-5.346,2.865-12.704,5.023-20.766c2.161-8.059,4.349-15.292,6.032-20.494c0.841-2.602,1.545-4.699,2.057-6.141
									c0.241-0.665,0.439-1.212,0.6-1.656C89.792,363.503,89.877,363.308,89.897,363.315z"/>
							</g>
						</g>
					</g>
				</g>
			</g>
			<g>
				<g>
					<g>
						<g>
							<g>
								<path style="fill:#263238;" d="M100.668,390.728c0.139,0.096-4.225,6.576-9.745,14.47
									c-5.522,7.897-10.11,14.218-10.249,14.122c-0.139-0.096,4.224-6.574,9.746-14.471
									C95.94,396.954,100.529,390.631,100.668,390.728z"/>
							</g>
						</g>
					</g>
				</g>
			</g>
			<g>
				<g>
					<g>
						<g>
							<g>
								<path style="fill:#263238;" d="M57.592,420.507c-0.052,0.062-0.81-0.455-1.956-1.39c-1.146-0.935-2.673-2.299-4.253-3.912
									c-1.579-1.615-2.911-3.168-3.82-4.333c-0.91-1.165-1.41-1.932-1.346-1.982c0.142-0.111,2.465,2.692,5.605,5.889
									C54.952,417.984,57.707,420.368,57.592,420.507z"/>
							</g>
						</g>
					</g>
				</g>
			</g>
			<g>
				<g>
					<g>
						<g>
							<g>
								<path style="fill:#263238;" d="M71.169,410.312c0.169-0.015,0.524,2.355,0.793,5.293c0.269,2.939,0.35,5.334,0.182,5.349
									c-0.169,0.015-0.524-2.354-0.793-5.294C71.082,412.722,71,410.327,71.169,410.312z"/>
							</g>
						</g>
					</g>
				</g>
			</g>
		</g>
	</g>
</g>
<g id="Speech_Bubble">
	<g>
		<g>
			<g>
				<g>
					<g>
						<g>
							<g>
								<g>
									<g>
										<g>
											<g>
												<g>
													<path style="fill:#FFFFFF;" d="M45.561,71.406c4.886-24.335,29.179-38.39,52.016-31.813
														c22.363,6.44,35.207,30.906,27.777,52.96c-2.49,7.389-6.867,13.608-12.41,18.309c-0.202,0.171-0.404,0.324-0.623,0.474
														c-0.018,0.012-0.037,0.025-0.056,0.038c-9.688,6.612-21.459,9.827-33.089,8.313c-3.898-0.508-7.646-1.492-10.935-3.056
														C51.373,108.61,41.884,89.717,45.561,71.406z"/>
												</g>
											</g>
											<g>
												<g>
													<g>
														<path style="fill:#263238;" d="M45.561,71.406c0,0-0.017,0.227-0.077,0.666c-0.065,0.455-0.157,1.101-0.277,1.942
															c-0.23,1.706-0.399,4.251-0.265,7.519c0.236,3.256,0.844,7.248,2.426,11.617c1.589,4.342,4.079,9.117,7.975,13.477
															c0.992,1.071,1.989,2.184,3.153,3.177c1.092,1.072,2.365,1.98,3.621,2.957c0.636,0.478,1.337,0.878,2.012,1.328
															l1.029,0.662c0.351,0.211,0.723,0.389,1.087,0.586c0.732,0.384,1.472,0.771,2.218,1.162
															c0.761,0.356,1.545,0.682,2.349,0.975c6.448,2.315,13.987,2.962,21.59,1.711c3.799-0.654,7.622-1.756,11.319-3.383
															c1.854-0.797,3.675-1.725,5.447-2.776c0.895-0.511,1.761-1.076,2.629-1.649c0.866-0.553,1.622-1.258,2.397-1.972
															c6.138-5.686,10.719-13.584,12.28-22.349c0.898-4.358,0.883-8.819,0.285-13.095c-0.222-2.158-0.826-4.23-1.35-6.294
															c-0.354-1.006-0.706-2.007-1.057-3.005c-0.157-0.506-0.379-0.985-0.606-1.46l-0.664-1.429
															c-1.819-3.766-4.079-7.271-6.852-10.206l-1.002-1.128l-1.101-1.02c-0.743-0.664-1.433-1.384-2.208-1.993
															c-1.577-1.186-3.094-2.419-4.789-3.347c-6.57-4.076-13.974-5.779-20.804-5.837c-1.717-0.112-3.392,0.153-5.041,0.264
															c-0.83,0.032-1.626,0.246-2.426,0.382c-0.798,0.151-1.588,0.301-2.37,0.449c-1.522,0.46-3.038,0.851-4.472,1.368
															c-0.706,0.289-1.405,0.576-2.096,0.859c-0.689,0.286-1.385,0.539-2.016,0.91c-5.236,2.593-9.392,5.999-12.502,9.436
															c-1.459,1.8-2.882,3.437-3.886,5.16c-0.269,0.418-0.533,0.826-0.791,1.226c-0.269,0.393-0.507,0.792-0.697,1.205
															c-0.409,0.809-0.799,1.58-1.168,2.309c-0.182,0.366-0.37,0.717-0.533,1.066c-0.137,0.361-0.27,0.71-0.398,1.049
															c-0.257,0.677-0.499,1.311-0.723,1.9c-0.498,1.162-0.708,2.212-0.942,3.041c-0.222,0.82-0.392,1.45-0.512,1.894
															C45.634,71.19,45.561,71.406,45.561,71.406s0.039-0.223,0.14-0.654c0.109-0.447,0.262-1.082,0.463-1.91
															c0.217-0.836,0.413-1.893,0.897-3.065c0.218-0.594,0.452-1.233,0.703-1.916c0.126-0.342,0.256-0.695,0.389-1.058
															c0.159-0.353,0.345-0.707,0.524-1.076c0.364-0.737,0.749-1.515,1.153-2.332c0.187-0.417,0.424-0.82,0.691-1.217
															c0.256-0.404,0.518-0.817,0.786-1.239c0.997-1.742,2.417-3.398,3.877-5.22c3.111-3.48,7.284-6.935,12.556-9.572
															c0.635-0.377,1.336-0.635,2.03-0.927c0.696-0.288,1.4-0.58,2.112-0.875c1.446-0.528,2.974-0.928,4.51-1.397
															c0.789-0.152,1.587-0.306,2.392-0.461c0.807-0.14,1.612-0.358,2.45-0.393c1.666-0.118,3.358-0.389,5.093-0.282
															c6.902,0.039,14.393,1.745,21.05,5.857c1.716,0.937,3.254,2.182,4.851,3.38c0.785,0.615,1.485,1.341,2.238,2.013
															l1.115,1.031l1.016,1.139c2.809,2.967,5.101,6.511,6.944,10.321L124.213,63c0.231,0.481,0.455,0.965,0.615,1.477
															c0.356,1.009,0.713,2.023,1.071,3.041c0.533,2.088,1.144,4.186,1.37,6.371c0.607,4.329,0.623,8.848-0.286,13.263
															c-1.582,8.878-6.224,16.873-12.444,22.626c-0.773,0.712-1.563,1.446-2.461,2.019
															c-0.877,0.578-1.753,1.148-2.657,1.663c-1.79,1.059-3.63,1.994-5.504,2.797c-3.735,1.638-7.599,2.746-11.438,3.4
															c-7.688,1.25-15.293,0.584-21.819-1.779c-0.814-0.299-1.608-0.633-2.38-0.996c-0.753-0.397-1.499-0.791-2.239-1.18
															c-0.366-0.201-0.742-0.382-1.096-0.596l-1.038-0.672c-0.681-0.456-1.387-0.863-2.028-1.348
															c-1.266-0.991-2.547-1.913-3.646-2.998c-1.171-1.007-2.174-2.134-3.169-3.218c-3.913-4.415-6.399-9.24-7.973-13.622
															c-1.567-4.409-2.148-8.43-2.354-11.704c-0.103-3.286,0.099-5.838,0.363-7.544c0.142-0.839,0.252-1.484,0.329-1.938
															C45.508,71.626,45.561,71.406,45.561,71.406z"/>
													</g>
												</g>
											</g>
										</g>
									</g>
								</g>
							</g>
						</g>
					</g>
				</g>
			</g>
			<g>
				<g>
					<g>
						<g>
							<path style="fill:#263238;" d="M117.616,119.646c0.061,0.003,0.037-0.63,0.328-1.701c0.288-1.05,1.005-2.585,2.588-3.764
								c1.529-1.182,4.046-1.843,6.48-0.935c1.199,0.434,2.342,1.252,3.153,2.382c0.835,1.114,1.304,2.543,1.318,4.017
								c-0.014,1.474-0.482,2.903-1.317,4.018c-0.811,1.13-1.954,1.948-3.153,2.382c-2.434,0.908-4.951,0.247-6.481-0.935
								c-1.582-1.179-2.3-2.714-2.587-3.764C117.653,120.277,117.677,119.643,117.616,119.646c-0.02,0-0.031,0.155-0.034,0.454
								c-0.009,0.298,0.026,0.743,0.148,1.3c0.23,1.098,0.916,2.738,2.558,4.029c1.585,1.293,4.268,2.057,6.901,1.107
								c1.297-0.454,2.538-1.328,3.423-2.545c0.908-1.2,1.424-2.751,1.437-4.347c-0.013-1.595-0.529-3.145-1.437-4.345
								c-0.884-1.216-2.125-2.089-3.422-2.544c-2.633-0.95-5.316-0.185-6.901,1.107c-1.642,1.291-2.328,2.93-2.559,4.029
								c-0.123,0.557-0.158,1.001-0.148,1.3C117.585,119.491,117.596,119.646,117.616,119.646z"/>
						</g>
					</g>
				</g>
			</g>
		</g>
		<g>
			<g>
				<path style="fill:#263238;" d="M77.514,79.039c0,2.079-1.685,3.765-3.764,3.765c-2.079,0-3.764-1.685-3.764-3.765
					c0-2.079,1.685-3.764,3.764-3.764C75.829,75.274,77.514,76.96,77.514,79.039z"/>
			</g>
		</g>
		<g>
			<g>
				<path style="fill:#263238;" d="M89.885,79.039c0,2.079-1.685,3.765-3.764,3.765c-2.079,0-3.764-1.685-3.764-3.765
					c0-2.079,1.685-3.764,3.764-3.764C88.2,75.274,89.885,76.96,89.885,79.039z"/>
			</g>
		</g>
		<g>
			<g>
				<path style="fill:#263238;" d="M102.256,79.039c0,2.079-1.685,3.765-3.764,3.765c-2.079,0-3.764-1.685-3.764-3.765
					c0-2.079,1.685-3.764,3.764-3.764C100.571,75.274,102.256,76.96,102.256,79.039z"/>
			</g>
		</g>
	</g>
</g>
<g id="Screens">
	<g>
		<g>
			<g>
				<g>
					<path style="fill:#FFFFFF;" d="M460.727,351.403h-94.296c-5.47,0-9.905-4.435-9.905-9.905v-27.134
						c0-5.47,4.435-9.905,9.905-9.905h94.296c5.47,0,9.905,4.435,9.905,9.905v27.134
						C470.632,346.968,466.197,351.403,460.727,351.403z"/>
				</g>
			</g>
			<g>
				<g>
					<g>
						<path style="fill:#263238;" d="M460.727,351.403c-0.01-0.063,1.095,0.07,3.033-0.533c0.958-0.313,2.105-0.867,3.241-1.809
							c1.106-0.959,2.241-2.305,2.892-4.11c0.347-0.889,0.555-1.89,0.6-2.947c0.048-1.058,0.007-2.191,0.014-3.362
							c-0.007-2.349-0.014-4.9-0.022-7.641c-0.006-2.742-0.013-5.673-0.02-8.781c-0.003-1.555-0.006-3.153-0.009-4.794
							c-0.043-1.638,0.111-3.344-0.204-5.002c-0.655-3.32-3.291-6.404-6.884-7.39c-1.773-0.535-3.713-0.329-5.672-0.366
							c-1.958,0.002-3.952,0.005-5.98,0.007c-8.116,0.008-16.786,0.016-25.91,0.024c-18.25,0.006-38.311,0.013-59.369,0.02
							c-2.57-0.011-5.101,1.054-6.871,2.872c-1.79,1.801-2.795,4.306-2.783,6.809c-0.001,5.129-0.003,10.182-0.004,15.148
							c-0.001,2.483-0.002,4.944-0.003,7.381c-0.001,1.219-0.001,2.431-0.002,3.638c-0.029,1.219,0.03,2.371,0.355,3.502
							c0.615,2.248,2.067,4.216,3.964,5.48c0.944,0.64,2.008,1.083,3.102,1.342c1.1,0.268,2.214,0.284,3.365,0.272
							c18.248,0.021,34.682,0.04,48.488,0.056c13.792,0.035,24.956,0.063,32.689,0.083c3.849,0.021,6.84,0.038,8.887,0.049
							c1.005,0.011,1.775,0.02,2.311,0.026C460.46,351.385,460.727,351.403,460.727,351.403s-0.267,0.018-0.787,0.027
							c-0.536,0.006-1.306,0.015-2.311,0.026c-2.047,0.011-5.039,0.028-8.887,0.049c-7.734,0.02-18.897,0.048-32.689,0.083
							c-13.806,0.016-30.24,0.035-48.488,0.056c-1.126,0.014-2.328,0-3.477-0.281c-1.15-0.271-2.268-0.736-3.261-1.406
							c-1.995-1.324-3.524-3.391-4.173-5.755c-0.344-1.17-0.406-2.445-0.377-3.634c0-1.207-0.001-2.419-0.002-3.638
							c-0.001-2.437-0.002-4.898-0.003-7.381c-0.001-4.966-0.003-10.019-0.004-15.148c-0.015-2.632,1.045-5.279,2.93-7.174
							c1.863-1.916,4.534-3.04,7.241-3.028c21.058,0.007,41.119,0.014,59.369,0.02c9.124,0.009,17.794,0.017,25.91,0.024
							c2.029,0.003,4.023,0.005,5.98,0.007c0.979,0.001,1.948,0.003,2.909,0.004c0.972,0.028,1.953,0.103,2.872,0.393
							c3.74,1.038,6.467,4.254,7.135,7.703c0.155,0.861,0.215,1.744,0.198,2.581c-0.002,0.842-0.003,1.673-0.005,2.494
							c-0.003,1.641-0.006,3.24-0.009,4.794c-0.007,3.108-0.014,6.039-0.02,8.781c-0.008,2.741-0.015,5.292-0.021,7.641
							c-0.015,1.176,0.018,2.292-0.037,3.374c-0.054,1.081-0.275,2.101-0.636,3.007c-0.68,1.837-1.849,3.197-2.983,4.158
							c-1.165,0.945-2.335,1.49-3.308,1.79c-0.98,0.29-1.756,0.392-2.276,0.42C460.993,351.408,460.727,351.403,460.727,351.403z"/>
					</g>
				</g>
			</g>
		</g>
		<g>
			<g>
				<g>
					<g>
						<path style="fill:#E0E0E0;" d="M450.894,331.001h-52.255c-1.937,0-3.507-1.57-3.507-3.508l0,0c0-1.937,1.57-3.507,3.507-3.507
							h52.255c1.937,0,3.508,1.57,3.508,3.507v0C454.401,329.431,452.831,331.001,450.894,331.001z"/>
					</g>
				</g>
			</g>
			<g>
				<g>
					<g>
						<g>
							<path style="fill:#FF725E;" d="M383.603,336.057h-5.977c-2.838,0-5.138-2.3-5.138-5.138v-5.977
								c0-2.838,2.3-5.138,5.138-5.138h5.977c2.838,0,5.138,2.301,5.138,5.138v5.977
								C388.741,333.757,386.44,336.057,383.603,336.057z"/>
						</g>
					</g>
				</g>
				<g>
					<g>
						<g>
							<g>
								<g>
									<g>
										<g>
											<polygon style="fill:#FFFFFF;" points="375.002,328.164 376.64,326.527 379.797,329.334 385.07,324.041 386.59,325.678 
												379.563,332.491 											"/>
										</g>
									</g>
								</g>
							</g>
						</g>
					</g>
				</g>
			</g>
		</g>
	</g>
	<g>
		<g>
			<g>
				<g>
					<g>
						<g>
							<path style="fill:#FFFFFF;" d="M448.027,271.108H334.424c-4.346,0-7.869-3.523-7.869-7.869v-69.557
								c0-4.346,3.523-7.869,7.869-7.869h113.602c4.346,0,7.869,3.523,7.869,7.869v69.557
								C455.895,267.585,452.372,271.108,448.027,271.108z"/>
						</g>
					</g>
					<g>
						<g>
							<g>
								<path style="fill:#263238;" d="M448.027,271.108c0,0,0.091-0.014,0.27-0.027c0.178-0.023,0.448-0.009,0.796-0.08
									c0.695-0.094,1.749-0.333,2.928-1.051c1.172-0.695,2.474-1.933,3.231-3.802c0.827-1.872,0.477-4.273,0.543-6.888
									c-0.02-10.531-0.048-25.748-0.083-44.55c-0.005-4.702-0.011-9.629-0.017-14.762c-0.001-1.283-0.003-2.579-0.004-3.888
									c-0.031-1.307,0.087-2.646-0.158-3.913c-0.518-2.541-2.431-4.843-5.005-5.691c-1.27-0.493-2.649-0.421-4.062-0.423
									c-1.406,0.001-2.823,0.002-4.252,0.003c-2.857,0.002-5.759,0.004-8.705,0.006c-5.891,0.003-11.953,0.007-18.17,0.011
									c-24.869,0.006-52.208,0.013-80.905,0.021c-1.736,0.012-3.458,0.604-4.798,1.699c-1.335,1.092-2.291,2.631-2.649,4.309
									c-0.181,0.84-0.176,1.693-0.172,2.587l0,2.644c0,1.76,0,3.514-0.001,5.261c-0.001,6.989-0.003,13.876-0.004,20.643
									c-0.005,13.534-0.01,26.588-0.015,39.024c-0.052,1.56,0.1,3.056,0.804,4.398c0.657,1.335,1.719,2.456,2.988,3.193
									c1.271,0.749,2.733,1.09,4.203,1.045c1.494,0.001,2.978,0.002,4.45,0.003c5.891,0.005,11.61,0.009,17.14,0.013
									c11.059,0.012,21.36,0.022,30.765,0.032c18.802,0.035,34.018,0.063,44.547,0.083c5.251,0.021,9.331,0.038,12.111,0.049
									c1.376,0.011,2.428,0.02,3.15,0.026C447.663,271.09,448.027,271.108,448.027,271.108s-0.363,0.018-1.073,0.027
									c-0.721,0.006-1.773,0.014-3.15,0.026c-2.78,0.011-6.86,0.028-12.111,0.049c-10.529,0.02-25.746,0.048-44.547,0.083
									c-9.405,0.01-19.707,0.02-30.765,0.032c-5.53,0.004-11.249,0.008-17.14,0.013c-1.473,0.001-2.956,0.002-4.45,0.003
									c-1.513,0.051-3.099-0.31-4.439-1.103c-1.348-0.781-2.476-1.969-3.176-3.387c-0.749-1.398-0.914-3.077-0.859-4.61
									c-0.005-12.436-0.01-25.491-0.015-39.024c-0.001-6.767-0.003-13.654-0.004-20.643c0-1.747,0-3.501-0.001-5.261l0-2.644
									c-0.004-0.869-0.011-1.798,0.183-2.695c0.383-1.794,1.404-3.439,2.83-4.604c1.429-1.169,3.273-1.804,5.126-1.815
									c28.697,0.007,56.036,0.014,80.905,0.02c6.217,0.004,12.279,0.007,18.17,0.011c2.945,0.002,5.848,0.004,8.705,0.006
									c1.429,0.001,2.846,0.002,4.252,0.003c1.38,0.004,2.862-0.069,4.203,0.454c2.718,0.903,4.732,3.333,5.273,6.016
									c0.257,1.365,0.128,2.692,0.159,3.996c-0.001,1.309-0.003,2.605-0.004,3.888c-0.006,5.133-0.012,10.059-0.017,14.762
									c-0.035,18.802-0.063,34.019-0.083,44.55c-0.004,1.315-0.008,2.556-0.012,3.722c0.01,1.174-0.198,2.28-0.59,3.224
									c-0.788,1.9-2.124,3.144-3.321,3.834c-1.204,0.713-2.273,0.936-2.975,1.014
									C448.392,271.134,448.027,271.108,448.027,271.108z"/>
							</g>
						</g>
					</g>
				</g>
			</g>
			<g>
				<g>
					<g>
						<g>
							<g>
								<g>
									<g>
										<g>
											<g>
												<path style="fill:#FF725E;" d="M405.634,235.34L405.634,235.34c-1.952,0-3.534,1.582-3.534,3.534v12.684
													c0,1.952,1.582,3.534,3.534,3.534h0c1.952,0,3.534-1.582,3.534-3.534v-12.684
													C409.167,236.922,407.585,235.34,405.634,235.34z"/>
											</g>
										</g>
									</g>
								</g>
							</g>
						</g>
					</g>
					<g>
						<g>
							<g>
								<g>
									<g>
										<g>
											<g>
												<path style="fill:#FF725E;" d="M346.603,232.479L346.603,232.479c-1.952,0-3.534,1.582-3.534,3.533v15.545
													c0,1.952,1.582,3.534,3.534,3.534h0c1.951,0,3.534-1.582,3.534-3.534v-15.545
													C350.137,234.061,348.554,232.479,346.603,232.479z"/>
											</g>
										</g>
									</g>
								</g>
							</g>
						</g>
					</g>
					<g>
						<g>
							<g>
								<g>
									<g>
										<g>
											<g>
												<path style="fill:#FF725E;" d="M361.361,227.765L361.361,227.765c-1.952,0-3.534,1.582-3.534,3.533v20.259
													c0,1.952,1.582,3.534,3.534,3.534h0c1.952,0,3.534-1.582,3.534-3.534v-20.259
													C364.894,229.347,363.312,227.765,361.361,227.765z"/>
											</g>
										</g>
									</g>
								</g>
							</g>
						</g>
					</g>
					<g>
						<g>
							<g>
								<g>
									<g>
										<g>
											<g>
												<path style="fill:#FF725E;" d="M376.118,229.264L376.118,229.264c-1.952,0-3.534,1.582-3.534,3.534v18.76
													c0,1.952,1.582,3.534,3.534,3.534h0c1.952,0,3.534-1.582,3.534-3.534v-18.76
													C379.652,230.846,378.07,229.264,376.118,229.264z"/>
											</g>
										</g>
									</g>
								</g>
							</g>
						</g>
					</g>
					<g>
						<g>
							<g>
								<g>
									<g>
										<g>
											<g>
												<path style="fill:#FF725E;" d="M390.876,220.527L390.876,220.527c-1.952,0-3.534,1.582-3.534,3.534v27.497
													c0,1.952,1.582,3.534,3.534,3.534h0c1.952,0,3.534-1.582,3.534-3.534V224.06
													C394.41,222.109,392.828,220.527,390.876,220.527z"/>
											</g>
										</g>
									</g>
								</g>
							</g>
						</g>
					</g>
					<g>
						<g>
							<g>
								<g>
									<g>
										<g>
											<g>
												<path style="fill:#FF725E;" d="M420.391,220.695L420.391,220.695c-1.952,0-3.534,1.582-3.534,3.534v27.329
													c0,1.952,1.582,3.534,3.534,3.534h0c1.952,0,3.534-1.582,3.534-3.534v-27.329
													C423.925,222.277,422.343,220.695,420.391,220.695z"/>
											</g>
										</g>
									</g>
								</g>
							</g>
						</g>
					</g>
					<g>
						<g>
							<g>
								<g>
									<g>
										<g>
											<g>
												<path style="fill:#FF725E;" d="M435.149,231.992L435.149,231.992c-1.952,0-3.534,1.582-3.534,3.534v16.032
													c0,1.952,1.582,3.534,3.534,3.534l0,0c1.952,0,3.534-1.582,3.534-3.534v-16.032
													C438.683,233.574,437.101,231.992,435.149,231.992z"/>
											</g>
										</g>
									</g>
								</g>
							</g>
						</g>
					</g>
				</g>
			</g>
		</g>
		<g>
			<g>
				<path style="fill:#E0E0E0;" d="M371.467,206.082h-27.281c-1.612,0-2.919-1.307-2.919-2.919v-0.628
					c0-1.612,1.307-2.919,2.919-2.919h27.281c1.612,0,2.919,1.307,2.919,2.919v0.628
					C374.386,204.775,373.079,206.082,371.467,206.082z"/>
			</g>
		</g>
	</g>
	<g>
		<g>
			<g>
				<g>
					<path style="fill:#FFFFFF;" d="M121.477,245.321H42.69c-2.515,0-4.554-2.039-4.554-4.554V172.22
						c0-2.969,2.407-5.376,5.376-5.376h77.142c2.969,0,5.376,2.407,5.376,5.376v68.548
						C126.031,243.282,123.992,245.321,121.477,245.321z"/>
				</g>
			</g>
			<g>
				<g>
					<path style="fill:#E0E0E0;" d="M126.031,184.734H38.137V172.22c0-2.969,2.407-5.376,5.376-5.376h77.142
						c2.969,0,5.376,2.407,5.376,5.376V184.734z"/>
				</g>
			</g>
			<g>
				<g>
					<path style="fill:#FFFFFF;" d="M52.53,176.727c0,1.803-1.434,3.264-3.202,3.264c-1.768,0-3.202-1.461-3.202-3.264
						c0-1.803,1.434-3.264,3.202-3.264C51.097,173.463,52.53,174.924,52.53,176.727z"/>
				</g>
			</g>
			<g>
				<g>
					<path style="fill:#FFFFFF;" d="M62.36,176.727c0,1.803-1.434,3.264-3.202,3.264c-1.769,0-3.202-1.461-3.202-3.264
						c0-1.803,1.434-3.264,3.202-3.264C60.926,173.463,62.36,174.924,62.36,176.727z"/>
				</g>
			</g>
			<g>
				<g>
					<path style="fill:#FFFFFF;" d="M72.19,176.727c0,1.803-1.434,3.264-3.202,3.264c-1.768,0-3.202-1.461-3.202-3.264
						c0-1.803,1.434-3.264,3.202-3.264C70.756,173.463,72.19,174.924,72.19,176.727z"/>
				</g>
			</g>
		</g>
		<g>
			<g>
				<g>
					<path style="fill:#FF725E;" d="M104.302,236.185H59.865c-3.023,0-5.473-2.451-5.473-5.473v-31.82
						c0-3.023,2.45-5.473,5.473-5.473h44.437c3.023,0,5.473,2.45,5.473,5.473v31.82
						C109.775,233.735,107.325,236.185,104.302,236.185z"/>
				</g>
			</g>
			<g>
				<g>
					<path style="fill:#FFFFFF;" d="M75.875,214.382v-6.568c0-1.623,1.757-2.638,3.163-1.826l5.688,3.284l5.688,3.284
						c1.406,0.812,1.406,2.841,0,3.652l-5.688,3.284l-5.688,3.284c-1.406,0.812-3.163-0.203-3.163-1.826V214.382z"/>
				</g>
			</g>
		</g>
		<g>
			<g>
				<g>
					<path style="fill:#263238;" d="M121.477,245.321c-0.002-0.025,0.287,0.003,0.827-0.106c0.533-0.105,1.347-0.363,2.149-1.078
						c0.789-0.695,1.545-1.93,1.5-3.508c-0.007-1.581-0.015-3.402-0.024-5.451c-0.02-8.218-0.048-20.083-0.083-34.741
						c-0.01-7.335-0.02-15.368-0.032-23.99c-0.001-1.078-0.002-2.165-0.004-3.261c-0.003-0.55,0.016-1.103-0.048-1.621
						c-0.055-0.528-0.224-1.041-0.444-1.524c-0.441-0.975-1.225-1.789-2.165-2.322c-0.476-0.259-0.992-0.445-1.527-0.552
						c-0.535-0.11-1.085-0.09-1.667-0.093c-4.594,0.004-9.321,0.007-14.169,0.011c-9.697,0.005-19.875,0.01-30.426,0.015
						c-5.276,0.001-10.645,0.003-16.094,0.004c-2.724,0-5.469,0.001-8.231,0.001c-1.381,0-2.767,0-4.157,0l-2.089,0
						c-0.697,0.01-1.407-0.033-2.052,0.065c-1.318,0.193-2.537,0.933-3.325,1.997c-0.396,0.53-0.687,1.136-0.851,1.774
						c-0.174,0.641-0.174,1.292-0.168,1.996c0,2.763-0.001,5.509-0.001,8.234c-0.001,5.45-0.003,10.821-0.004,16.098
						c-0.005,10.554-0.01,20.734-0.015,30.432c-0.002,2.424-0.003,4.819-0.005,7.181c-0.001,1.181-0.002,2.355-0.003,3.52
						c0,0.583-0.001,1.163-0.001,1.742c-0.004,0.589-0.008,1.132,0.129,1.663c0.255,1.061,0.932,2.001,1.834,2.588
						c0.45,0.294,0.952,0.505,1.475,0.613c0.519,0.114,1.06,0.088,1.626,0.093c2.228,0.002,4.421,0.005,6.577,0.007
						c8.623,0.011,16.656,0.022,23.991,0.032c14.658,0.035,26.522,0.063,34.739,0.083c4.091,0.021,7.271,0.038,9.445,0.049
						c1.069,0.011,1.888,0.02,2.456,0.026C121.193,245.303,121.477,245.321,121.477,245.321s-0.284,0.018-0.837,0.027
						c-0.568,0.006-1.387,0.015-2.456,0.026c-2.174,0.011-5.354,0.028-9.445,0.049c-8.217,0.02-20.081,0.048-34.739,0.083
						c-7.335,0.01-15.368,0.02-23.991,0.032c-2.156,0.002-4.349,0.005-6.577,0.007c-0.546-0.004-1.133,0.026-1.717-0.099
						c-0.578-0.119-1.134-0.35-1.631-0.674c-0.997-0.646-1.747-1.682-2.032-2.857c-0.153-0.585-0.149-1.208-0.145-1.772
						c0-0.578-0.001-1.159-0.001-1.742c-0.001-1.165-0.002-2.338-0.003-3.52c-0.002-2.362-0.004-4.757-0.005-7.181
						c-0.005-9.698-0.01-19.878-0.015-30.432c-0.001-5.277-0.003-10.648-0.004-16.098c0-2.725-0.001-5.47-0.001-8.234
						c-0.007-0.675-0.008-1.424,0.184-2.126c0.181-0.704,0.501-1.372,0.938-1.955c0.867-1.171,2.211-1.987,3.664-2.201
						c0.74-0.108,1.435-0.059,2.13-0.07h2.089c1.39,0,2.776,0,4.157,0c2.763,0,5.507,0.001,8.231,0.001
						c5.449,0.001,10.818,0.003,16.094,0.004c10.551,0.005,20.729,0.01,30.426,0.015c4.848,0.004,9.576,0.007,14.169,0.011
						c0.563,0.004,1.167-0.017,1.753,0.104c0.583,0.117,1.144,0.321,1.661,0.604c1.023,0.581,1.87,1.468,2.349,2.528
						c0.239,0.526,0.42,1.084,0.479,1.658c0.068,0.58,0.045,1.131,0.048,1.677c-0.001,1.096-0.002,2.183-0.004,3.261
						c-0.011,8.623-0.022,16.656-0.032,23.99c-0.035,14.658-0.063,26.523-0.083,34.741c-0.009,2.049-0.017,3.87-0.024,5.451
						c0.03,1.624-0.767,2.89-1.585,3.586c-0.833,0.718-1.667,0.962-2.209,1.052c-0.275,0.045-0.485,0.06-0.626,0.056
						C121.548,245.326,121.477,245.321,121.477,245.321z"/>
				</g>
			</g>
		</g>
	</g>
	<g>
		<g>
			<g>
				<g>
					<path style="fill:#FFFFFF;" d="M396.959,153.678H296.298c-2.515,0-4.554-2.039-4.554-4.554V81.162
						c0-2.969,2.407-5.376,5.376-5.376h99.016c2.969,0,5.376,2.407,5.376,5.376v67.962
						C401.513,151.639,399.474,153.678,396.959,153.678z"/>
				</g>
			</g>
			<g>
				<g>
					<path style="fill:#E0E0E0;" d="M401.513,93.593H291.744V81.162c0-2.969,2.407-5.376,5.376-5.376h99.016
						c2.969,0,5.376,2.407,5.376,5.376V93.593z"/>
				</g>
			</g>
			<g>
				<g>
					<path style="fill:#FFFFFF;" d="M306.348,85.623c0,1.794-1.454,3.249-3.249,3.249c-1.794,0-3.249-1.455-3.249-3.249
						c0-1.794,1.455-3.249,3.249-3.249C304.893,82.374,306.348,83.829,306.348,85.623z"/>
				</g>
			</g>
			<g>
				<g>
					<path style="fill:#FFFFFF;" d="M316.322,85.623c0,1.794-1.455,3.249-3.249,3.249c-1.794,0-3.249-1.455-3.249-3.249
						c0-1.794,1.454-3.249,3.249-3.249C314.867,82.374,316.322,83.829,316.322,85.623z"/>
				</g>
			</g>
			<g>
				<g>
					<path style="fill:#FFFFFF;" d="M326.295,85.623c0,1.794-1.455,3.249-3.249,3.249c-1.794,0-3.249-1.455-3.249-3.249
						c0-1.794,1.455-3.249,3.249-3.249C324.84,82.374,326.295,83.829,326.295,85.623z"/>
				</g>
			</g>
			<g>
				<g>
					<path style="fill:#FF725E;" d="M337.23,143.262h-31.667c-2.204,0-3.99-1.786-3.99-3.99v-31.667c0-2.204,1.786-3.99,3.99-3.99
						h31.667c2.204,0,3.99,1.786,3.99,3.99v31.667C341.22,141.476,339.434,143.262,337.23,143.262z"/>
				</g>
			</g>
			<g>
				<g>
					<path style="fill:#E0E0E0;" d="M389.999,111.786h-36.735c-1.131,0-2.048-0.917-2.048-2.048l0,0
						c0-1.131,0.917-2.048,2.048-2.048h36.735c1.131,0,2.048,0.917,2.048,2.048l0,0C392.047,110.869,391.13,111.786,389.999,111.786
						z"/>
				</g>
			</g>
			<g>
				<g>
					<path style="fill:#E0E0E0;" d="M389.999,121.158h-36.735c-1.131,0-2.048-0.917-2.048-2.048l0,0
						c0-1.131,0.917-2.048,2.048-2.048h36.735c1.131,0,2.048,0.917,2.048,2.048l0,0C392.047,120.241,391.13,121.158,389.999,121.158
						z"/>
				</g>
			</g>
			<g>
				<g>
					<path style="fill:#E0E0E0;" d="M389.999,130.53h-36.735c-1.131,0-2.048-0.917-2.048-2.048l0,0c0-1.131,0.917-2.048,2.048-2.048
						h36.735c1.131,0,2.048,0.917,2.048,2.048l0,0C392.047,129.613,391.13,130.53,389.999,130.53z"/>
				</g>
			</g>
			<g>
				<g>
					<path style="fill:#E0E0E0;" d="M371.985,139.902h-18.721c-1.131,0-2.048-0.917-2.048-2.048l0,0
						c0-1.131,0.917-2.048,2.048-2.048h18.721c1.131,0,2.048,0.917,2.048,2.048l0,0
						C374.033,138.985,373.116,139.902,371.985,139.902z"/>
				</g>
			</g>
			<g>
				<g>
					<g>
						<path style="fill:#263238;" d="M396.959,153.678c-0.002-0.022,0.324,0.001,0.935-0.124c0.595-0.14,1.517-0.465,2.348-1.357
							c0.409-0.443,0.778-1.026,1.003-1.735c0.234-0.713,0.195-1.537,0.19-2.432c-0.007-1.788-0.015-3.849-0.024-6.167
							c-0.02-9.293-0.048-22.718-0.083-39.304c-0.005-4.149-0.011-8.495-0.017-13.023c-0.003-2.264-0.005-4.574-0.008-6.928
							c-0.006-1.186,0.08-2.361-0.399-3.428c-0.449-1.059-1.258-1.976-2.285-2.541c-0.515-0.279-1.078-0.47-1.66-0.563
							c-0.574-0.1-1.189-0.065-1.814-0.07c-1.24,0.001-2.491,0.002-3.751,0.003c-2.521,0.002-5.081,0.004-7.68,0.006
							c-5.197,0.004-10.546,0.007-16.03,0.011c-10.97,0.005-22.485,0.01-34.422,0.015c-5.969,0.001-12.043,0.003-18.207,0.004
							c-3.082,0-6.187,0.001-9.312,0.001c-1.563,0-3.131,0-4.703,0l-2.363,0c-0.784,0.014-1.598-0.04-2.327,0.064
							c-1.495,0.212-2.857,1.137-3.616,2.43c-0.385,0.641-0.629,1.366-0.703,2.109c-0.052,0.731-0.015,1.552-0.026,2.322
							c0,3.126-0.001,6.232-0.001,9.315c-0.001,6.166-0.003,12.242-0.004,18.212c-0.005,11.94-0.01,23.457-0.015,34.429
							c0.165,2.659-0.673,5.76,1.507,7.475c0.477,0.418,1.052,0.716,1.658,0.882c0.607,0.178,1.236,0.162,1.907,0.161
							c1.318,0.001,2.627,0.002,3.926,0.003c5.197,0.005,10.243,0.009,15.122,0.013c9.756,0.011,18.844,0.022,27.142,0.032
							c16.586,0.035,30.009,0.063,39.301,0.083c4.631,0.021,8.229,0.038,10.685,0.049c1.212,0.011,2.14,0.02,2.779,0.026
							C396.638,153.66,396.959,153.678,396.959,153.678s-0.321,0.018-0.947,0.027c-0.639,0.006-1.566,0.014-2.779,0.026
							c-2.456,0.011-6.054,0.028-10.685,0.049c-9.292,0.02-22.715,0.048-39.301,0.083c-8.298,0.01-17.386,0.02-27.142,0.032
							c-4.879,0.004-9.924,0.008-15.122,0.013c-1.299,0.001-2.608,0.002-3.926,0.003c-0.643,0.002-1.355,0.023-2.031-0.174
							c-0.672-0.183-1.31-0.514-1.84-0.976c-1.07-0.908-1.721-2.324-1.679-3.743c-0.001-1.354-0.002-2.717-0.003-4.089
							c-0.005-10.972-0.01-22.489-0.015-34.429c-0.001-5.97-0.003-12.046-0.004-18.212c0-3.083-0.001-6.189-0.001-9.315
							c0.013-0.793-0.029-1.539,0.028-2.374c0.081-0.819,0.35-1.618,0.774-2.325c0.837-1.424,2.336-2.444,3.985-2.678
							c0.839-0.116,1.615-0.054,2.405-0.07l2.363,0c1.573,0,3.141,0,4.703,0c3.125,0,6.23,0.001,9.312,0.001
							c6.164,0.001,12.238,0.003,18.207,0.004c11.937,0.005,23.452,0.01,34.422,0.015c5.485,0.004,10.833,0.007,16.03,0.011
							c2.598,0.002,5.159,0.004,7.68,0.006c1.26,0.001,2.511,0.002,3.751,0.003c0.613,0.007,1.242-0.03,1.883,0.079
							c0.631,0.102,1.242,0.311,1.799,0.615c1.113,0.615,1.986,1.608,2.469,2.757c0.24,0.576,0.371,1.191,0.409,1.805
							c0.033,0.618,0.008,1.192,0.015,1.786c-0.003,2.354-0.005,4.664-0.008,6.928c-0.006,4.528-0.011,8.875-0.017,13.023
							c-0.035,16.586-0.063,30.01-0.083,39.304c-0.009,2.318-0.017,4.379-0.024,6.167c-0.004,0.885,0.028,1.737-0.221,2.471
							c-0.239,0.728-0.626,1.321-1.05,1.768c-0.863,0.9-1.808,1.212-2.414,1.337C397.283,153.715,396.959,153.678,396.959,153.678z"
							/>
					</g>
				</g>
			</g>
		</g>
		<g style="opacity:0.3;">
			<g>
				<path d="M301.572,132.016v7.406c0,2.121,1.719,3.84,3.84,3.84h31.896c2.16,0,3.911-1.751,3.911-3.911v-11.906l-9.246-8.595
					c-1.052-0.978-2.705-0.892-3.649,0.191l-7.235,8.292l-7.129-3.369c-1.298-0.614-2.838-0.395-3.913,0.557L301.572,132.016z"/>
			</g>
		</g>
		<g style="opacity:0.3;">
			<g>
				<circle cx="319.511" cy="114.119" r="3.579"/>
			</g>
		</g>
	</g>
</g>
<g id="Character">
	<g>
		<g>
			<g>
				<g>
					<g>
						<g>
							<path style="fill:#263238;" d="M167.676,204.453c2.676-2.301,6.467-2.938,9.188-5.184c2.717-2.242,4.017-5.85,4.193-9.367
								s-0.647-7.003-1.53-10.413l29.09,36.524c-2.31,4.025-4.798,8.079-8.421,10.98c-3.623,2.9-8.639,4.471-13.002,2.891
								c-4.364-1.58-7.324-6.969-5.317-11.153c-3.911,3.632-10.697,3.703-14.507-0.036
								C163.561,214.956,163.629,207.932,167.676,204.453z"/>
						</g>
					</g>
				</g>
				<g>
					<g>
						<g>
							<path style="fill:#263238;" d="M251.742,97.782c7.05,5.154,8.214,10.286,8.495,13.038c0.082,0.806-0.054,1.832-0.825,2.084
								c-0.374,0.122-0.78,0.008-1.156-0.107c-7.866-2.39-15.731-4.781-23.596-7.171"/>
						</g>
					</g>
				</g>
				<g>
					<g>
						<g>
							<g>
								<g>
									<g>
										<g>
											<g>
												<g>
													<g>
														<g>
															<path style="fill:#263238;" d="M186.535,189.84c-5.31-9.521-10.593-19.127-14.185-29.42
																c-3.592-10.293-5.444-21.395-3.692-32.155c0.265-1.631,3.074-12.776,4.719-12.934
																c1.176-0.114,0.081,9.983,0.862,10.869c7.448,8.462,11.224,19.658,12.506,30.858
																C188.027,168.258,187.687,178.626,186.535,189.84"/>
														</g>
													</g>
												</g>
											</g>
										</g>
									</g>
								</g>
							</g>
						</g>
					</g>
					<g>
						<g>
							<g>
								<g>
									<g>
										<g>
											<g>
												<g>
													<g>
														<g>
															<g>
																<path style="fill:#FFBF9D;" d="M197.744,247.699l-20.3-98.461c-6.15-26.64,4.226-52.424,31.027-57.835l2.506-0.356
																	c25.218-3.576,48.962,12.803,54.554,37.652c5.203,23.12,10.655,48.732,12.279,61.3
																	c3.362,26.02-22.043,33.743-22.043,33.743c-0.058,0.011,4.758,26.256,6.167,33.825l-39.257,4.994l-9.448,0.846
																	L197.744,247.699z"/>
															</g>
														</g>
													</g>
												</g>
											</g>
										</g>
									</g>
								</g>
							</g>
						</g>
					</g>
					<g>
						<g>
							<g>
								<g>
									<g>
										<g>
											<g>
												<g>
													<g>
														<g>
															<g>
																<g>
																	<path style="fill:#FF9A6C;" d="M255.766,223.744c0,0-16.236,3.283-35.238-5.202c0,0,10.906,18.374,36.492,12.36
																		L255.766,223.744z"/>
																</g>
															</g>
														</g>
													</g>
												</g>
											</g>
										</g>
									</g>
								</g>
							</g>
						</g>
					</g>
					<g>
						<g>
							<g>
								<g>
									<g>
										<g>
											<g>
												<g>
													<g>
														<g>
															<g>
																<g>
																	<g>
																		<g>
																			<g>
																				<g>
																					<g>
																						<g>
																							<path style="fill:#263238;" d="M260.753,154.038c0.348,1.949-1.017,3.85-3.046,4.25
																								c-2.025,0.399-3.951-0.853-4.297-2.802c-0.348-1.949,1.016-3.852,3.041-4.252
																								C258.48,150.835,260.407,152.09,260.753,154.038z"/>
																						</g>
																					</g>
																				</g>
																			</g>
																		</g>
																	</g>
																</g>
															</g>
														</g>
													</g>
												</g>
											</g>
										</g>
									</g>
								</g>
							</g>
						</g>
					</g>
					<g>
						<g>
							<g>
								<g>
									<g>
										<g>
											<g>
												<g>
													<g>
														<g>
															<g>
																<g>
																	<g>
																		<g>
																			<g>
																				<g>
																					<g>
																						<g>
																							<g>
																								<path style="fill:#263238;" d="M261.634,140.954c-0.391,0.549-3.496-1.132-7.487-0.556
																									c-3.993,0.518-6.632,2.988-7.134,2.56c-0.243-0.186,0.101-1.126,1.245-2.235
																									c1.124-1.102,3.138-2.306,5.627-2.648c2.488-0.338,4.71,0.28,6.045,1.047
																									C261.29,139.89,261.83,140.705,261.634,140.954z"/>
																							</g>
																						</g>
																					</g>
																				</g>
																			</g>
																		</g>
																	</g>
																</g>
															</g>
														</g>
													</g>
												</g>
											</g>
										</g>
									</g>
								</g>
							</g>
						</g>
					</g>
					<g>
						<g>
							<g>
								<g>
									<g>
										<g>
											<g>
												<g>
													<g>
														<g>
															<g>
																<g>
																	<g>
																		<g>
																			<g>
																				<g>
																					<g>
																						<g>
																							<path style="fill:#263238;" d="M226.349,158.877c0.347,1.949-1.017,3.85-3.046,4.249
																								c-2.025,0.399-3.951-0.853-4.298-2.802c-0.347-1.949,1.018-3.852,3.043-4.251
																								C224.076,155.673,226.002,156.929,226.349,158.877z"/>
																						</g>
																					</g>
																				</g>
																			</g>
																		</g>
																	</g>
																</g>
															</g>
														</g>
													</g>
												</g>
											</g>
										</g>
									</g>
								</g>
							</g>
						</g>
					</g>
					<g>
						<g>
							<g>
								<g>
									<g>
										<g>
											<g>
												<g>
													<g>
														<g>
															<g>
																<g>
																	<g>
																		<g>
																			<g>
																				<g>
																					<g>
																						<g>
																							<g>
																								<path style="fill:#263238;" d="M222.639,147.428c-0.392,0.549-3.501-1.13-7.488-0.555
																									c-3.992,0.519-6.632,2.988-7.134,2.56c-0.242-0.186,0.097-1.124,1.247-2.235
																									c1.124-1.103,3.138-2.306,5.626-2.649c2.489-0.338,4.71,0.281,6.045,1.046
																									C222.291,146.365,222.833,147.18,222.639,147.428z"/>
																							</g>
																						</g>
																					</g>
																				</g>
																			</g>
																		</g>
																	</g>
																</g>
															</g>
														</g>
													</g>
												</g>
											</g>
										</g>
									</g>
								</g>
							</g>
						</g>
					</g>
					<g>
						<g>
							<g>
								<g>
									<g>
										<g>
											<g>
												<g>
													<g>
														<g>
															<g>
																<g>
																	<g>
																		<g>
																			<g>
																				<g>
																					<g>
																						<g>
																							<path style="fill:#263238;" d="M241.307,176.069c-0.051-0.224,2.37-1.005,6.317-2.089
																								c1.005-0.25,1.941-0.589,2.014-1.309c0.135-0.77-0.447-1.808-1.109-2.924
																								c-1.308-2.331-2.678-4.774-4.115-7.334c-5.754-10.457-10.072-19.113-9.649-19.341
																								c0.424-0.228,5.43,8.063,11.183,18.519c1.394,2.583,2.726,5.043,3.995,7.398
																								c0.549,1.104,1.399,2.323,1.096,3.925c-0.167,0.801-0.837,1.46-1.464,1.728
																								c-0.625,0.292-1.197,0.385-1.697,0.487C243.861,175.919,241.355,176.294,241.307,176.069z"/>
																						</g>
																					</g>
																				</g>
																			</g>
																		</g>
																	</g>
																</g>
															</g>
														</g>
													</g>
												</g>
											</g>
										</g>
									</g>
								</g>
							</g>
						</g>
					</g>
					<g>
						<g>
							<g>
								<g>
									<g>
										<g>
											<g>
												<g>
													<g>
														<g>
															<g>
																<g>
																	<g>
																		<g>
																			<path style="fill:#263238;" d="M222.16,134.76c-0.398,1.096-4.423,0.574-9.153,1.142
																				c-4.742,0.472-8.557,1.854-9.184,0.872c-0.28-0.471,0.386-1.502,1.929-2.562
																				c1.529-1.059,3.968-2.064,6.808-2.379c2.839-0.308,5.439,0.144,7.161,0.845
																				C221.458,133.377,222.332,134.239,222.16,134.76z"/>
																		</g>
																	</g>
																</g>
															</g>
														</g>
													</g>
												</g>
											</g>
										</g>
									</g>
								</g>
							</g>
						</g>
					</g>
					<g>
						<g>
							<g>
								<g>
									<g>
										<g>
											<g>
												<g>
													<g>
														<g>
															<g>
																<g>
																	<g>
																		<g>
																			<path style="fill:#263238;" d="M261.232,134.413c-0.686,1.034-4.076,0.605-7.983,1.173
																				c-3.922,0.453-7.105,1.739-8.014,0.912c-0.405-0.406-0.028-1.394,1.28-2.477
																				c1.287-1.077,3.556-2.147,6.247-2.499c2.691-0.349,5.141,0.106,6.643,0.82
																				C260.929,133.054,261.527,133.914,261.232,134.413z"/>
																		</g>
																	</g>
																</g>
															</g>
														</g>
													</g>
												</g>
											</g>
										</g>
									</g>
								</g>
							</g>
						</g>
					</g>
					<g>
						<g>
							<g>
								<g>
									<g>
										<g>
											<g>
												<g>
													<g>
														<g>
															<path style="fill:#FFBF9D;" d="M182.293,168.171c-0.47-0.129-18.596-2.747-15.51,14.929
																c3.086,17.677,20.196,10.933,20.139,10.421C186.864,193.009,182.293,168.171,182.293,168.171z"/>
														</g>
													</g>
												</g>
											</g>
										</g>
									</g>
								</g>
							</g>
						</g>
					</g>
					<g>
						<g>
							<g>
								<g>
									<g>
										<g>
											<g>
												<g>
													<g>
														<g>
															<g>
																<path style="fill:#FF9A6C;" d="M180.353,187.767c-0.087-0.043-0.271,0.269-0.749,0.598
																	c-0.467,0.321-1.312,0.633-2.294,0.449c-1.987-0.359-4.077-3.05-4.719-6.221c-0.326-1.6-0.256-3.192,0.092-4.559
																	c0.315-1.387,0.993-2.437,1.904-2.768c0.898-0.38,1.662,0.067,1.965,0.527c0.323,0.453,0.272,0.825,0.372,0.839
																	c0.057,0.036,0.327-0.363,0.057-1.068c-0.135-0.339-0.414-0.719-0.889-0.986c-0.484-0.271-1.139-0.339-1.781-0.153
																	c-1.347,0.332-2.355,1.8-2.739,3.302c-0.457,1.521-0.573,3.316-0.207,5.114c0.735,3.542,3.14,6.558,5.824,6.85
																	c1.3,0.108,2.272-0.449,2.735-0.959C180.396,188.199,180.42,187.788,180.353,187.767z"/>
															</g>
														</g>
													</g>
												</g>
											</g>
										</g>
									</g>
								</g>
							</g>
						</g>
					</g>
					<g>
						<g>
							<g>
								<g>
									<g>
										<g>
											<g>
												<g>
													<g>
														<g>
															<path style="fill:#263238;" d="M248.743,101.56c2.567-2.101-7.704-9.777-15.309-11.673
																c-11.492-2.864-28.237-2.854-37.509,1.717c-11.164,5.503-19.872,13.159-23.816,24.964
																c-3.944,11.804-3.873,24.701-1.283,36.875c0.79,3.714,1.892,7.535,4.467,10.326c3.181,3.45,7.061,4.731,9.144,10.459
																c0.684,1.881,1.212,3.864,2.823,5.051c3.861,2.843,7.218-1.11,8.44-4.681c2.61-7.625,1.527-15.958,0.413-23.94
																c-0.792-5.674-1.619-11.465-4.199-16.58c-1.403-2.783-3.301-5.308-4.548-8.165c-1.248-2.857-1.779-6.261-0.368-9.041
																c0.23-0.452,0.637-1.043,1.167-1.714c4.193-5.299,10.95-7.895,17.622-6.829c10.585,1.691,28.521,3.825,32.335-0.362
																c5.486-6.024,6.431-9.468,6.431-9.468L248.743,101.56z"/>
														</g>
													</g>
												</g>
											</g>
										</g>
									</g>
								</g>
							</g>
						</g>
					</g>
					<g>
						<g>
							<g>
								<g>
									<g>
										<g>
											<g>
												<g>
													<g>
														<g>
															<g>
																<g>
																	<path style="fill:#263238;" d="M229.316,180.814c0.6-0.15,1.372,3.897,5.381,6.117
																		c4.005,2.23,8.234,0.96,8.373,1.52c0.104,0.243-0.813,0.968-2.625,1.362c-1.775,0.399-4.493,0.318-6.946-1.039
																		c-2.447-1.364-3.8-3.544-4.252-5.178C228.772,181.931,229.034,180.843,229.316,180.814z"/>
																</g>
															</g>
														</g>
													</g>
												</g>
											</g>
										</g>
									</g>
								</g>
							</g>
						</g>
					</g>
				</g>
				<g>
					<g>
						<g>
							<g>
								<path style="fill:#455A64;" d="M169.899,169.676c-0.389-0.241-0.901-0.211-1.272-0.454
									c-24.484-16.016-11.428-38.148-12.239-44.08c-1.124-8.223-8.953,3.877-12.182-6.632
									c-4.275-13.917,9.78-22.781,27.326-32.323c7.35-3.997,26.387-8.297,43.856-7.855c15.587,0.394,27.551,9.22,34.731,16.374
									c0,0,3.815,1.059,4.94,2.465c3.529,4.409,2.704,6.634,2.704,6.634s-36.322-11.149-59.961,16.592
									c-23.639,27.741-15.043,46.346-22.332,47.932L169.899,169.676z"/>
							</g>
						</g>
					</g>
					<g>
						<g>
							<g>
								<path style="fill:#263238;" d="M179.876,97.167c0.017,0.032-0.465,0.347-1.348,0.888c-0.445,0.265-0.985,0.596-1.587,1.018
									c-0.605,0.417-1.317,0.857-2.046,1.429c-1.5,1.08-3.194,2.49-4.972,4.162c-1.752,1.7-3.573,3.677-5.291,5.911
									c-1.697,2.251-3.119,4.533-4.291,6.675c-1.139,2.159-2.048,4.168-2.689,5.901c-0.357,0.854-0.592,1.657-0.833,2.352
									c-0.247,0.693-0.423,1.301-0.559,1.801c-0.286,0.995-0.462,1.544-0.497,1.536c-0.035-0.008,0.074-0.572,0.301-1.587
									c0.107-0.51,0.255-1.129,0.477-1.835c0.216-0.707,0.428-1.524,0.766-2.393c0.602-1.764,1.484-3.806,2.611-6
									c1.16-2.175,2.585-4.491,4.3-6.765c1.736-2.258,3.588-4.247,5.376-5.944c1.814-1.67,3.548-3.063,5.088-4.113
									c0.748-0.556,1.479-0.979,2.103-1.375c0.621-0.402,1.179-0.709,1.642-0.948C179.345,97.39,179.859,97.135,179.876,97.167z"
									/>
							</g>
						</g>
					</g>
					<g>
						<g>
							<g>
								<path style="fill:#263238;" d="M251.102,95.017c-0.002,0.009-0.114-0.009-0.33-0.052c-0.242-0.051-0.558-0.119-0.956-0.203
									c-0.835-0.198-2.077-0.441-3.677-0.749c-1.606-0.269-3.572-0.6-5.875-0.811c-2.299-0.234-4.933-0.377-7.84-0.295
									c-5.803,0.136-12.74,1.191-19.945,3.893c-3.599,1.34-7.254,3.08-10.832,5.239c-3.567,2.176-7.044,4.785-10.29,7.801
									c-3.216,3.048-6.07,6.331-8.424,9.785c-2.349,3.456-4.258,7.026-5.781,10.553c-3.064,7.062-4.619,13.873-5.662,19.59
									c-0.998,5.739-1.437,10.441-1.725,13.686c-0.128,1.599-0.229,2.853-0.3,3.742c-0.035,0.405-0.062,0.727-0.083,0.973
									c-0.022,0.219-0.037,0.331-0.046,0.331c-0.009,0-0.011-0.113-0.007-0.334c0.008-0.248,0.019-0.57,0.032-0.977
									c0.031-0.858,0.09-2.124,0.202-3.752c0.226-3.254,0.61-7.969,1.564-13.734c1-5.743,2.523-12.594,5.584-19.717
									c1.521-3.557,3.437-7.161,5.801-10.652c2.369-3.488,5.245-6.803,8.489-9.877c3.273-3.041,6.782-5.67,10.382-7.857
									c3.611-2.171,7.299-3.915,10.931-5.253c7.267-2.696,14.264-3.721,20.104-3.81c2.925-0.058,5.571,0.111,7.877,0.374
									c2.31,0.24,4.279,0.601,5.883,0.901c1.598,0.34,2.835,0.616,3.663,0.847c0.393,0.105,0.705,0.189,0.944,0.253
									C250.997,94.973,251.104,95.008,251.102,95.017z"/>
							</g>
						</g>
					</g>
					<g>
						<g>
							<g>
								<path style="fill:#263238;" d="M179.649,158.871c0.057,0.115-2.15,0.834-4.878,0.29c-2.734-0.517-4.511-2.01-4.415-2.095
									c0.084-0.139,1.91,1.096,4.514,1.584C177.467,159.172,179.623,158.711,179.649,158.871z"/>
							</g>
						</g>
					</g>
					<g>
						<g>
							<g>
								<path style="fill:#263238;" d="M186.071,141.52c-0.002,0.06-0.729,0.107-1.888-0.07c-1.156-0.174-2.737-0.622-4.322-1.467
									c-1.583-0.851-2.833-1.918-3.618-2.783c-0.79-0.866-1.154-1.496-1.105-1.532c0.123-0.116,1.87,2.225,4.969,3.856
									C183.182,141.197,186.1,141.353,186.071,141.52z"/>
							</g>
						</g>
					</g>
					<g>
						<g>
							<g>
								<path style="fill:#263238;" d="M198.522,119.305c-0.134,0.095-1.607-2.197-4.173-4.276
									c-2.546-2.106-5.082-3.097-5.016-3.248c0.023-0.123,2.718,0.675,5.346,2.845
									C197.324,116.774,198.638,119.259,198.522,119.305z"/>
							</g>
						</g>
					</g>
					<g>
						<g>
							<g>
								<path style="fill:#263238;" d="M213.053,108.358c-0.154,0.051-0.866-2.328-2.553-4.824
									c-1.662-2.514-3.587-4.081-3.482-4.204c0.062-0.11,2.194,1.318,3.915,3.915
									C212.673,105.826,213.178,108.343,213.053,108.358z"/>
							</g>
						</g>
					</g>
					<g>
						<g>
							<g>
								<path style="fill:#263238;" d="M236.831,102.386c-0.166,0.007,0.164-2.55-1.176-5.275c-1.289-2.751-3.49-4.092-3.381-4.217
									c0.029-0.051,0.617,0.199,1.412,0.846c0.794,0.641,1.755,1.727,2.439,3.145c0.679,1.42,0.926,2.848,0.93,3.869
									C237.061,101.781,236.888,102.396,236.831,102.386z"/>
							</g>
						</g>
					</g>
					<g>
						<g>
							<g>
								<path style="fill:#263238;" d="M252.027,103.205c-0.158-0.023,0.164-1.939-0.31-4.231c-0.445-2.298-1.479-3.942-1.342-4.025
									c0.093-0.09,1.38,1.503,1.852,3.923C252.722,101.286,252.147,103.252,252.027,103.205z"/>
							</g>
						</g>
					</g>
				</g>
			</g>
			<g>
				<g>
					<g>
						<path style="fill:#FF9A6C;" d="M229.314,262.654c-0.053-0.003,0.003-0.787-0.055-2.2c-0.051-1.412-0.246-3.454-0.8-5.919
							c-0.553-2.464-1.471-5.337-2.742-8.43c-1.261-3.098-2.868-6.414-4.457-9.949c-1.516-3.373-2.836-6.671-3.691-9.789
							l-0.052-0.19l0.173-0.09c2.326-1.204,4.16-2.842,5.486-4.506l0.107-0.134l0.148,0.082c1.803,0.991,3.622,1.307,5.1,1.304
							l0.089,0l0.042,0.074c0.764,1.35,1.54,2.312,2.09,2.947c0.554,0.634,0.88,0.952,0.859,0.975c-0.009,0.01-0.101-0.058-0.27-0.2
							c-0.166-0.144-0.408-0.364-0.705-0.668c-0.591-0.608-1.415-1.553-2.229-2.905l0.13,0.073
							c-1.521,0.044-3.407-0.242-5.298-1.244l0.255-0.053c-1.332,1.725-3.195,3.429-5.58,4.685l0.121-0.279
							c0.868,3.077,2.188,6.343,3.7,9.707c1.584,3.525,3.182,6.855,4.427,9.982c1.255,3.121,2.146,6.034,2.658,8.532
							c0.513,2.499,0.654,4.569,0.643,5.992c-0.006,0.712-0.03,1.264-0.071,1.637C229.357,262.461,229.331,262.655,229.314,262.654z
							"/>
					</g>
				</g>
			</g>
		</g>
		<g>
			<g>
				<g>
					<path style="fill:#FF725E;" d="M149.673,265.171l40.762-24.468c0,0,31.617,20.827,52.242,13.192
						c13.937-5.159,13.937-24.032,13.937-24.032l40.045,0.138l35.453,108.544l9.072,129.887l-177.392-0.017l-7.153-152.435
						L149.673,265.171z"/>
				</g>
			</g>
			<g style="opacity:0.3;">
				<g>
					<g>
						<path d="M162.154,436.611c12.383,10.495,28.581,15.652,44.727,17.32c16.146,1.668,32.431,0.094,48.587-1.48
							c27.904-2.718,56.37-1.958,84.274-4.676c-0.789-6.976-1.495-24.382-2.284-31.357l-175.304,12.545V436.611z"/>
					</g>
				</g>
			</g>
			<g>
				<g>
					<g>
						<path style="fill:#FFBF9D;" d="M147.619,384.125c0,0-3.837-1.842-5.743,0.076c-1.906,1.918-3.273,4.745-3.273,4.745
							s-6.169-1.85-8.735,3.276c0,0-4.608,2.912-1.875,8.626c0,0-4.934,6.878-1.002,12.831c0.892,1.35,1.605,1.91,1.605,1.91
							s1.85,7.174,4.324,8.37c2.474,1.196,11.288,3.889,11.586-0.153c0.298-4.042-1.278-3.67-1.278-3.67s10.433,5.656,15.053,9.809
							c4.62,4.153,16.756,10.324,24.247,10.307c7.491-0.017,4.294-16.127,4.294-16.127L147.619,384.125z"/>
					</g>
				</g>
				<g>
					<g>
						<path style="fill:#FFBF9D;" d="M314.797,307.8c-0.49,2.448-0.882,15.668-0.882,15.668l8.649,54.71
							c-17.07,3.543-101.02,20.56-101.02,20.56l-7.813,41.29c0,0,132.024-2.443,146.715-16.154
							c14.691-13.712,7.25-69.224,7.25-74.611c0-5.387-3.625-41.065-3.625-41.065L314.797,307.8z"/>
					</g>
				</g>
				<g>
					<g>
						<g>
							<path style="fill:#FF9A6C;" d="M131.28,401.751c0.015-0.032,0.493,0.159,1.343,0.532c0.934,0.424,2.136,0.97,3.578,1.625
								c1.532,0.717,3.315,1.551,5.278,2.47c0.496,0.235,1.004,0.475,1.522,0.72c0.26,0.124,0.523,0.249,0.788,0.374
								c0.268,0.141,0.597,0.292,0.787,0.688c0.086,0.199,0.087,0.435-0.001,0.641c-0.093,0.202-0.248,0.344-0.402,0.44
								c-0.307,0.192-0.66,0.275-0.973,0.303c-0.629,0.092-1.273,0.099-1.918,0.066c-2.591-0.167-4.891-0.999-7.03-1.344
								c-1.063-0.189-2.096-0.271-2.989-0.022c-0.897,0.235-1.559,0.858-1.965,1.539c-0.822,1.393-0.773,2.804-0.78,3.705
								c0.021,0.923,0.051,1.438,0.01,1.441c-0.031,0.002-0.129-0.501-0.213-1.431c-0.051-0.906-0.179-2.363,0.665-3.901
								c0.412-0.747,1.155-1.483,2.163-1.767c0.995-0.297,2.099-0.216,3.187-0.037c2.193,0.331,4.499,1.142,6.98,1.297
								c0.618,0.032,1.23,0.026,1.822-0.059c0.565-0.028,1.15-0.353,0.975-0.671c-0.156-0.338-0.837-0.552-1.32-0.813
								c-0.515-0.251-1.021-0.496-1.515-0.736c-1.945-0.956-3.711-1.824-5.229-2.57c-1.413-0.715-2.591-1.311-3.506-1.774
								C131.712,402.036,131.264,401.783,131.28,401.751z"/>
						</g>
					</g>
				</g>
				<g>
					<g>
						<g>
							<path style="fill:#FF9A6C;" d="M147.824,398.738c-0.047,0.068-0.963-0.526-2.497-1.375c-1.533-0.851-3.71-1.92-6.226-2.818
								c-2.519-0.892-4.883-1.437-6.608-1.745c-1.726-0.31-2.811-0.427-2.804-0.51c0.003-0.061,1.101-0.074,2.861,0.146
								c1.757,0.217,4.171,0.713,6.727,1.618c2.553,0.911,4.738,2.05,6.238,2.991C147.016,397.985,147.86,398.688,147.824,398.738z"
								/>
						</g>
					</g>
				</g>
				<g>
					<g>
						<g>
							<path style="fill:#FF9A6C;" d="M146.795,391.628c-0.069,0.15-1.85-0.665-4.059-1.532c-1.109-0.424-2.134-0.729-2.891-0.879
								c-0.755-0.157-1.24-0.19-1.242-0.27c-0.004-0.063,0.492-0.163,1.295-0.094c0.803,0.061,1.889,0.323,3.023,0.757
								C145.183,390.497,146.847,391.518,146.795,391.628z"/>
						</g>
					</g>
				</g>
				<g>
					<g>
						<g>
							<path style="fill:#FF9A6C;" d="M144.096,420.616c-0.003,0.063-0.7,0.098-1.809-0.073c-1.109-0.164-2.609-0.574-4.191-1.203
								c-1.582-0.631-2.954-1.323-3.93-1.852c-0.975-0.531-1.556-0.898-1.525-0.961c0.074-0.154,2.537,1.066,5.646,2.329
								c1.559,0.62,3.004,1.074,4.071,1.326C143.424,420.441,144.102,420.535,144.096,420.616z"/>
						</g>
					</g>
				</g>
				<g>
					<g>
						<g>
							<path style="fill:#FF9A6C;" d="M137.229,418.47c0.132,0.035-0.111,1.034-1.007,1.866c-0.889,0.84-1.902,1.019-1.928,0.884
								c-0.048-0.144,0.784-0.514,1.572-1.264C136.665,419.219,137.089,418.413,137.229,418.47z"/>
						</g>
					</g>
				</g>
				<g>
					<g>
						<path style="fill:#FF725E;" d="M295.572,230.014c0,0,31.178-1.275,47.079,20.629c15.407,21.224,27.51,65.335,27.51,65.335
							l-59.536,7.927l-8.818-57.391L295.572,230.014z"/>
					</g>
				</g>
				<g>
					<g>
						<g>
							<path style="fill:#FF9A6C;" d="M345.724,403.237c-0.109,0.028-0.51-1.944-1.745-4.914c-0.313-0.741-0.661-1.548-1.112-2.379
								c-0.405-0.854-0.941-1.71-1.479-2.624c-1.143-1.787-2.537-3.665-4.202-5.462c-1.687-1.778-3.471-3.29-5.181-4.546
								c-0.877-0.596-1.697-1.187-2.523-1.645c-0.801-0.503-1.584-0.903-2.303-1.263c-2.884-1.424-4.826-1.951-4.791-2.058
								c0.01-0.034,0.494,0.09,1.365,0.346c0.438,0.121,0.968,0.286,1.565,0.533c0.598,0.239,1.297,0.477,2.021,0.848
								c0.737,0.343,1.54,0.728,2.361,1.221c0.846,0.449,1.686,1.033,2.584,1.627c1.75,1.252,3.571,2.777,5.283,4.581
								c1.69,1.824,3.094,3.74,4.23,5.566c0.535,0.934,1.064,1.809,1.457,2.683c0.439,0.85,0.772,1.677,1.067,2.435
								c0.323,0.746,0.515,1.459,0.716,2.071c0.208,0.611,0.339,1.151,0.431,1.596C345.666,402.738,345.759,403.229,345.724,403.237
								z"/>
						</g>
					</g>
				</g>
				<g>
					<g>
						<g>
							<path style="fill:#263238;" d="M301.808,266.514c0.017-0.007,0.135,0.251,0.345,0.75c0.223,0.545,0.521,1.275,0.895,2.192
								c0.735,1.919,1.705,4.737,2.699,8.277c2.044,7.067,4.091,17.029,5.893,28.093c1.787,11.072,3.059,21.143,3.965,28.43
								c0.437,3.607,0.792,6.543,1.045,8.634c0.11,0.983,0.198,1.766,0.263,2.35c0.054,0.538,0.074,0.822,0.057,0.824
								c-0.018,0.002-0.073-0.277-0.161-0.81c-0.089-0.581-0.209-1.36-0.36-2.338c-0.293-2.086-0.704-5.015-1.21-8.613
								c-1-7.275-2.33-17.334-4.114-28.395c-1.8-11.052-3.785-21.005-5.733-28.078c-0.946-3.543-1.86-6.369-2.534-8.305
								c-0.336-0.93-0.603-1.67-0.802-2.223C301.877,266.793,301.791,266.521,301.808,266.514z"/>
						</g>
					</g>
				</g>
			</g>
			<g>
				<g>
					<g>
						<g>
							<g>
								<path style="fill:#FFBF9D;" d="M195.932,275.819l-6.072,64.393l-9.304-16.403l-47.914,5.7
									c0.49,2.449,17.552,62.368,24.898,79.018c7.346,16.65,27.913,46.229,50.929,35.602
									c23.016-10.627,21.547-94.371,21.547-103.918c0-9.547-4.607-66.51-4.607-66.51"/>
							</g>
						</g>
						<g>
							<g>
								<g>
									<path style="fill:#FF9A6C;" d="M225.409,273.703c0,0,0.05,0.399,0.122,1.18c0.069,0.792,0.17,1.951,0.303,3.468
										c0.251,3.06,0.619,7.555,1.093,13.34c0.445,5.798,0.99,12.888,1.622,21.117c0.289,4.118,0.599,8.522,0.927,13.191
										c0.282,4.673,0.66,9.608,0.727,14.816c0.088,10.391-0.041,21.785-0.737,33.992c-0.735,12.194-1.883,25.251-4.706,38.728
										c-1.473,6.707-3.301,13.588-6.533,20.072c-1.629,3.21-3.658,6.359-6.526,8.763c-0.73,0.578-1.491,1.127-2.319,1.572
										c-0.821,0.47-1.702,0.773-2.563,1.139c-0.868,0.346-1.781,0.581-2.678,0.854c-0.925,0.166-1.834,0.442-2.78,0.504
										c-1.873,0.289-3.786,0.191-5.678,0.012c-1.887-0.265-3.757-0.701-5.561-1.357c-3.608-1.309-6.96-3.318-10.02-5.696
										c-6.116-4.801-11.201-10.932-15.558-17.562c-2.413-3.672-4.552-7.487-6.414-11.401c-1.822-3.937-3.314-7.973-4.725-11.986
										c-2.824-8.031-5.359-16.007-7.799-23.833c-2.431-7.829-4.742-15.517-6.947-23.031c-2.192-7.525-4.344-14.828-6.244-22.027
										l-0.066-0.249l0.269-0.032c17.319-2.048,33.401-3.949,47.918-5.665l0.133-0.016l0.066,0.116
										c3.285,5.805,6.372,11.26,9.287,16.412l-0.337,0.072c1.918-19.975,3.464-36.068,4.531-47.178
										c0.544-5.542,0.965-9.839,1.252-12.763c0.148-1.449,0.26-2.555,0.338-3.311c0.079-0.745,0.132-1.125,0.132-1.125
										s-0.019,0.383-0.08,1.13c-0.066,0.757-0.162,1.865-0.287,3.316c-0.265,2.926-0.654,7.226-1.156,12.772
										c-1.029,11.114-2.519,27.211-4.369,47.193l-0.053,0.572l-0.284-0.5c-2.926-5.146-6.024-10.594-9.322-16.393l0.198,0.1
										c-14.514,1.737-30.594,3.662-47.91,5.735l0.203-0.28c1.892,7.128,4.06,14.473,6.255,21.98
										c2.211,7.51,4.526,15.195,6.96,23.019c2.442,7.821,4.98,15.792,7.802,23.811c1.411,4.009,2.899,8.03,4.708,11.937
										c1.851,3.889,3.98,7.686,6.38,11.338c4.333,6.595,9.39,12.688,15.441,17.439c3.027,2.353,6.333,4.334,9.877,5.62
										c1.771,0.645,3.604,1.072,5.45,1.333c1.851,0.175,3.721,0.273,5.552-0.009c0.925-0.059,1.815-0.331,2.719-0.492
										c0.879-0.267,1.773-0.495,2.624-0.835c0.842-0.357,1.716-0.659,2.499-1.107c0.797-0.428,1.532-0.958,2.241-1.518
										c2.784-2.329,4.791-5.424,6.403-8.599c3.203-6.412,5.034-13.266,6.507-19.948c2.827-13.432,3.992-26.473,4.744-38.653
										c0.714-12.194,0.865-23.576,0.8-33.965c-0.054-5.184-0.42-10.125-0.689-14.796c-0.314-4.67-0.61-9.073-0.887-13.192
										c-0.598-8.231-1.112-15.322-1.533-21.122c-0.432-5.789-0.767-10.285-0.996-13.347c-0.11-1.519-0.194-2.679-0.251-3.472
										C225.423,274.104,225.409,273.703,225.409,273.703z"/>
								</g>
							</g>
						</g>
					</g>
					<g>
						<g>
							<g>
								<path style="fill:#FF9A6C;" d="M189.717,338.544c0.018,0.002,0.001,0.264-0.049,0.764c-0.064,0.497-0.098,1.24-0.275,2.177
									c-0.279,1.886-0.9,4.588-2.004,7.817c-1.095,3.233-2.758,6.952-4.86,10.936c-2.098,3.988-4.645,8.234-7.271,12.706
									c-2.62,4.474-4.967,8.823-6.761,12.935c-1.789,4.11-3.049,7.964-3.714,11.286c-0.677,3.319-0.881,6.069-0.862,7.964
									c-0.039,0.949,0.052,1.683,0.048,2.184c0.015,0.5,0.014,0.764-0.004,0.766s-0.052-0.259-0.101-0.758
									c-0.03-0.5-0.154-1.236-0.146-2.19c-0.081-1.905,0.068-4.682,0.704-8.039c0.623-3.36,1.858-7.258,3.635-11.405
									c1.781-4.147,4.127-8.523,6.752-13.007c2.629-4.477,5.183-8.707,7.296-12.668c2.116-3.957,3.804-7.637,4.936-10.834
									c1.141-3.192,1.813-5.863,2.151-7.729c0.208-0.927,0.273-1.663,0.371-2.155C189.647,338.801,189.7,338.542,189.717,338.544z
									"/>
							</g>
						</g>
					</g>
				</g>
				<g>
					<g>
						<path style="fill:#FF725E;" d="M149.673,265.171c-1.317,0.263-23.792,10.648-23.639,45.277
							c0.114,25.849,7.049,50.651,7.049,50.651l54.161-25.498L149.673,265.171z"/>
					</g>
				</g>
				<g>
					<g>
						<g>
							<g>
								<path style="fill:#FFBF9D;" d="M225.409,273.703c0,0,6.379-6.592,6.379-15.199c0-8.606-3.31-17.213-3.31-17.213
									s-1.07-9.05-1.745-12.552l2.904-5.489c0,0,7.944,3.476,9.269-1.655l-4.675-6.397c-1.046-1.431-2.543-2.47-4.25-2.949
									l-7.037-1.974c-2.474-0.694-5.129-0.269-7.262,1.164l-8.223,5.521l5.131-10.593l8.606-1.82c0,0,12.248,5.296,14.565-1.655
									l-10.262-5.958l-19.53,0.331c0,0-4.469,5.462-5.462,7.117c-0.993,1.655-4.218,7.347-4.218,7.347l-4.885-12.643
									c0,0,0.151-8.064-0.042-14.782c-0.214-7.425-4.568-9.908-9.036-7.425c-0.434,0.241-2.428,20.115-1.434,24.749
									c0.993,4.634,9.544,39.075,9.544,39.075s2.972,7.837,4.144,10.149c2.531,4.996,2.343,9.184,2.445,11.052
									c0.2,3.658-1.194,15.009-1.194,15.009"/>
							</g>
						</g>
						<g>
							<g>
								<g>
									<path style="fill:#FF9A6C;" d="M195.829,276.913c0,0,0.011-0.219,0.054-0.646c0.045-0.44,0.11-1.072,0.195-1.897
										c0.168-1.671,0.427-4.142,0.667-7.348c0.105-1.602,0.248-3.392,0.16-5.348c-0.052-1.965-0.183-4.102-0.767-6.325
										c-0.286-1.109-0.674-2.235-1.174-3.355c-0.519-1.104-1.095-2.263-1.591-3.478c-1.021-2.425-2.038-5.016-3.091-7.754
										l-0.003-0.009l-0.002-0.01c-1.406-5.717-2.955-12.013-4.628-18.817c-0.836-3.403-1.702-6.933-2.598-10.581
										c-0.448-1.824-0.903-3.678-1.365-5.56c-0.231-0.941-0.464-1.889-0.698-2.844c-0.113-0.481-0.245-0.949-0.343-1.445
										c-0.098-0.503-0.135-1.003-0.176-1.506c-0.203-4.016,0.074-8.118,0.368-12.318c0.16-2.099,0.348-4.222,0.58-6.367
										c0.118-1.073,0.24-2.149,0.403-3.234c0.042-0.272,0.084-0.542,0.142-0.819c0.016-0.071,0.025-0.135,0.048-0.212
										l0.032-0.113l0.02-0.063c0.02-0.043,0.047-0.087,0.079-0.125c0.083-0.094,0.097-0.077,0.132-0.1l0.095-0.046l0.19-0.093
										c0.498-0.261,1.035-0.457,1.586-0.599c1.101-0.281,2.323-0.256,3.404,0.204c1.086,0.45,1.968,1.306,2.567,2.296
										c1.212,2.005,1.506,4.4,1.501,6.683c0.015,4.587,0.03,9.259,0.046,14.007l-0.017-0.096
										c1.545,3.996,3.206,8.29,4.888,12.641l-0.465-0.034c1.387-2.413,2.816-4.901,4.272-7.434
										c1.66-2.458,3.555-4.726,5.431-7.066l0.075-0.093l0.122-0.002c1.154-0.02,2.402-0.041,3.654-0.062
										c5.357-0.09,10.654-0.18,15.876-0.268l0.072-0.001l0.063,0.036c3.461,2.01,6.882,3.998,10.26,5.96l0.179,0.104
										l-0.065,0.199c-0.448,1.38-1.502,2.581-2.843,3.134c-1.331,0.562-2.768,0.672-4.147,0.605
										c-2.775-0.166-5.413-0.931-7.918-1.934l0.151,0.015c-2.913,0.615-5.779,1.22-8.607,1.816l0.171-0.134
										c-1.751,3.609-3.461,7.135-5.137,10.589l-0.35-0.304c2.865-1.918,5.676-3.8,8.431-5.644
										c1.434-0.916,3.118-1.387,4.78-1.395c0.832-0.003,1.659,0.115,2.452,0.331c0.772,0.217,1.54,0.433,2.303,0.648
										c1.526,0.43,3.035,0.855,4.526,1.274c1.531,0.39,2.945,1.232,3.992,2.376c1.896,2.414,3.548,4.814,5.261,7.123l0.059,0.08
										l-0.026,0.092c-0.265,0.935-0.827,1.815-1.671,2.306c-0.833,0.494-1.798,0.658-2.706,0.64
										c-1.834-0.036-3.557-0.515-5.166-1.168l0.244-0.085c-1.039,1.958-1.989,3.745-2.912,5.484l0.018-0.119
										c0.778,4.487,1.248,8.681,1.724,12.567l-0.009-0.038c1.826,5.158,2.813,9.982,3.155,14.232
										c0.161,2.12,0.195,4.118-0.128,5.911c-0.299,1.792-0.81,3.37-1.368,4.736c-1.145,2.729-2.455,4.608-3.366,5.83
										c-0.469,0.604-0.838,1.051-1.102,1.338c-0.259,0.29-0.408,0.422-0.408,0.422s0.127-0.152,0.375-0.451
										c0.252-0.295,0.609-0.751,1.065-1.361c0.885-1.235,2.166-3.122,3.279-5.842c0.542-1.361,1.036-2.93,1.319-4.704
										c0.307-1.772,0.262-3.746,0.089-5.858c-0.363-4.219-1.373-9.03-3.205-14.139l-0.007-0.02l-0.002-0.018
										c-0.491-3.878-0.979-8.081-1.767-12.536l-0.011-0.064l0.029-0.055c0.918-1.742,1.862-3.532,2.896-5.493l0.08-0.152
										l0.165,0.066c1.556,0.628,3.268,1.094,5.014,1.121c0.869,0.017,1.76-0.147,2.498-0.589
										c0.746-0.439,1.235-1.206,1.482-2.063l0.033,0.172c-1.705-2.287-3.408-4.739-5.246-7.073
										c-0.999-1.083-2.322-1.872-3.795-2.244c-1.492-0.417-3.002-0.839-4.529-1.266c-1.541-0.398-3.049-0.994-4.632-0.954
										c-1.578,0.01-3.175,0.46-4.533,1.331c-2.749,1.846-5.554,3.73-8.412,5.649l-0.736,0.494l0.386-0.798
										c1.672-3.456,3.378-6.984,5.124-10.595l0.053-0.109l0.119-0.025c2.828-0.6,5.693-1.207,8.605-1.825l0.075-0.016
										l0.077,0.031c2.44,0.977,5.066,1.733,7.744,1.887c1.332,0.066,2.7-0.049,3.917-0.565c1.223-0.512,2.142-1.563,2.56-2.828
										l0.115,0.303c-3.379-1.961-6.801-3.947-10.262-5.956l0.134,0.035c-5.222,0.089-10.519,0.179-15.876,0.27
										c-1.252,0.021-2.5,0.042-3.654,0.062l0.197-0.095c-1.864,2.323-3.783,4.628-5.391,7.009
										c-1.453,2.527-2.881,5.009-4.265,7.417l-0.271,0.471l-0.195-0.505c-1.68-4.352-3.338-8.647-4.881-12.644l-0.017-0.044
										l0-0.053c-0.012-4.74-0.023-9.405-0.035-13.984c0.01-2.265-0.288-4.56-1.421-6.439c-0.559-0.925-1.362-1.699-2.337-2.105
										c-0.971-0.414-2.075-0.444-3.1-0.184c-0.512,0.131-1.016,0.313-1.487,0.56l-0.179,0.087l-0.09,0.043l-0.045,0.022
										c0.089,0.173-0.157-0.24-0.085-0.117c0.022,0.044,0.109,0.135,0.105,0.116c0.015-0.008,0.026-0.023,0.028-0.036
										l-0.01,0.035l-0.024,0.084c-0.017,0.053-0.028,0.126-0.042,0.187c-0.054,0.257-0.097,0.526-0.138,0.792
										c-0.162,1.069-0.286,2.145-0.405,3.213c-0.234,2.137-0.425,4.256-0.588,6.351c-0.3,4.185-0.582,8.293-0.389,12.253
										c0.039,0.491,0.076,0.984,0.167,1.454c0.093,0.476,0.227,0.959,0.337,1.435c0.232,0.955,0.463,1.904,0.692,2.845
										c0.457,1.882,0.908,3.736,1.352,5.561c0.886,3.649,1.744,7.179,2.571,10.583c1.651,6.807,3.179,13.106,4.566,18.826
										l-0.006-0.019c1.041,2.738,2.047,5.334,3.055,7.757c0.492,1.222,1.046,2.349,1.572,3.481
										c0.5,1.137,0.887,2.279,1.171,3.403c0.579,2.25,0.698,4.421,0.736,6.379c0.076,1.976-0.082,3.767-0.201,5.371
										c-0.267,3.208-0.556,5.676-0.753,7.344c-0.104,0.824-0.184,1.453-0.24,1.893
										C195.871,276.697,195.829,276.913,195.829,276.913z"/>
								</g>
							</g>
						</g>
					</g>
					<g>
						<g>
							<g>
								<path style="fill:#FF9A6C;" d="M227.809,212.53c0.009,0.087-0.923,0.085-2.167,0.809c-1.25,0.687-2.742,2.072-4.463,3.482
									c-1.716,1.419-3.287,2.681-4.443,3.575c-1.155,0.894-1.894,1.421-1.941,1.366c-0.047-0.054,0.606-0.679,1.702-1.646
									c1.096-0.968,2.635-2.278,4.355-3.7c1.723-1.409,3.247-2.753,4.618-3.402C226.834,212.335,227.829,212.473,227.809,212.53z"
									/>
							</g>
						</g>
					</g>
				</g>
				<g>
					<g>
						<g>
							<path style="fill:#263238;" d="M171.885,290.982c0.136-0.048,3.758,9.932,8.09,22.286
								c4.333,12.359,7.735,22.413,7.599,22.461c-0.136,0.048-3.757-9.93-8.09-22.289
								C175.151,301.086,171.749,291.029,171.885,290.982z"/>
						</g>
					</g>
				</g>
			</g>
		</g>
	</g>
</g>
</svg>
